<svg width="413" height="208" viewBox="0 0 413 208" fill="none" xmlns="http://www.w3.org/2000/svg">
<rect width="413" height="208" rx="6" fill="white"/>
<path d="M183.75 104C183.75 148.183 147.933 184 103.75 184C59.5672 184 23.75 148.183 23.75 104C23.75 59.8172 59.5672 24 103.75 24C147.933 24 183.75 59.8172 183.75 104ZM43.75 104C43.75 137.137 70.6129 164 103.75 164C136.887 164 163.75 137.137 163.75 104C163.75 70.8629 136.887 44 103.75 44C70.6129 44 43.75 70.8629 43.75 104Z" fill="#A23FEE" fill-opacity="0.1"/>
<path d="M68.5 164.622C65.7386 169.405 59.5754 171.091 55.1741 167.754C44.464 159.636 35.9262 148.914 30.4164 136.539C23.5448 121.105 21.7357 103.892 25.2482 87.3671C28.7607 70.8419 37.4146 55.8529 49.9695 44.5484C60.0365 35.4841 72.1972 29.1618 85.2833 26.1016C90.661 24.844 95.6057 28.8909 96.183 34.3835C96.7603 39.8761 92.7364 44.7155 87.4157 46.196C78.5241 48.6702 70.2776 53.1756 63.3522 59.4113C53.9359 67.8897 47.4455 79.1314 44.8111 91.5253C42.1767 103.919 43.5336 116.829 48.6873 128.404C52.4777 136.918 58.1788 144.388 65.2953 150.265C69.5538 153.781 71.2614 159.839 68.5 164.622Z" fill="#A23FEE"/>
<path d="M79.6506 109.932H88.0284V113H91.5568V109.932H93.7216V106.974H91.5568V95.5455H86.9375L79.6506 107.026V109.932ZM88.0966 106.974H83.3665V106.838L87.9602 99.5682H88.0966V106.974ZM103.024 113.384C107.413 113.384 110.064 110.043 110.072 104.29C110.081 98.5795 107.396 95.3068 103.024 95.3068C98.6435 95.3068 95.9844 98.571 95.9759 104.29C95.9588 110.026 98.6264 113.375 103.024 113.384ZM103.024 110.324C101.021 110.324 99.7259 108.312 99.7344 104.29C99.7429 100.327 101.03 98.3324 103.024 98.3324C105.01 98.3324 106.305 100.327 106.305 104.29C106.314 108.312 105.018 110.324 103.024 110.324ZM122.258 109.727C122.266 111.824 123.604 113.605 126.102 113.605C128.573 113.605 129.954 111.824 129.945 109.727V108.807C129.954 106.693 128.607 104.929 126.102 104.929C123.638 104.929 122.266 106.71 122.258 108.807V109.727ZM113.3 99.7386C113.309 101.835 114.647 103.599 117.136 103.599C119.616 103.599 120.996 101.852 120.988 99.7386V98.8182C120.996 96.7045 119.65 94.9403 117.136 94.9403C114.698 94.9403 113.309 96.7045 113.3 98.8182V99.7386ZM114.136 113H116.36L128.36 95.5455H126.136L114.136 113ZM124.738 108.807C124.746 107.972 125.079 107.111 126.102 107.111C127.175 107.111 127.457 107.972 127.448 108.807V109.727C127.457 110.562 127.141 111.406 126.102 111.406C125.062 111.406 124.746 110.537 124.738 109.727V108.807ZM115.798 98.8182C115.806 98.0085 116.121 97.1222 117.136 97.1222C118.21 97.1222 118.499 97.983 118.491 98.8182V99.7386C118.499 100.574 118.175 101.418 117.136 101.418C116.13 101.418 115.806 100.574 115.798 99.7386V98.8182Z" fill="#A23FEE"/>
<path d="M225.651 85L226.675 82.1165H230.791L231.815 85H233.108L229.369 74.8182H228.097L224.358 85H225.651ZM227.062 81.0227L228.693 76.429H228.773L230.403 81.0227H227.062ZM239.822 77.3636H238.549L236.441 83.4489H236.362L234.254 77.3636H232.981L235.805 85H236.998L239.822 77.3636ZM244.299 85.1591C245.85 85.1591 246.984 84.3835 247.342 83.2301L246.208 82.9119C245.91 83.7074 245.219 84.1051 244.299 84.1051C242.922 84.1051 241.972 83.2152 241.918 81.5795H247.461V81.0824C247.461 78.2386 245.771 77.2642 244.18 77.2642C242.112 77.2642 240.739 78.8949 240.739 81.2415C240.739 83.5881 242.092 85.1591 244.299 85.1591ZM241.918 80.5653C241.997 79.3771 242.837 78.3182 244.18 78.3182C245.452 78.3182 246.268 79.2727 246.268 80.5653H241.918ZM249.246 85H250.419V80.1676C250.419 79.1335 251.234 78.3778 252.348 78.3778C252.661 78.3778 252.984 78.4375 253.064 78.4574V77.2642C252.93 77.2543 252.621 77.2443 252.447 77.2443C251.533 77.2443 250.737 77.7614 250.459 78.517H250.379V77.3636H249.246V85ZM256.702 85.179C258.034 85.179 258.73 84.4631 258.969 83.9659H259.029V85H260.202V79.9688C260.202 77.5426 258.352 77.2642 257.378 77.2642C256.225 77.2642 254.912 77.6619 254.316 79.054L255.429 79.4517C255.688 78.8949 256.299 78.2983 257.418 78.2983C258.497 78.2983 259.029 78.87 259.029 79.8494V79.8892C259.029 80.456 258.452 80.4062 257.06 80.5852C255.643 80.7692 254.097 81.0824 254.097 82.8324C254.097 84.3239 255.25 85.179 256.702 85.179ZM256.881 84.125C255.946 84.125 255.27 83.7074 255.27 82.892C255.27 81.9972 256.085 81.7188 257 81.5994C257.497 81.5398 258.83 81.4006 259.029 81.1619V82.2358C259.029 83.1903 258.273 84.125 256.881 84.125ZM265.426 88.0227C267.255 88.0227 268.727 87.1875 268.727 85.2188V77.3636H267.593V78.5767H267.474C267.216 78.179 266.738 77.2642 265.247 77.2642C263.318 77.2642 261.985 78.7955 261.985 81.142C261.985 83.5284 263.377 84.8807 265.227 84.8807C266.718 84.8807 267.196 84.0057 267.454 83.5881H267.554V85.1392C267.554 86.4119 266.659 86.9886 265.426 86.9886C264.039 86.9886 263.551 86.2578 263.238 85.8352L262.304 86.4915C262.781 87.2919 263.721 88.0227 265.426 88.0227ZM265.386 83.8267C263.914 83.8267 263.159 82.7131 263.159 81.1222C263.159 79.571 263.895 78.3182 265.386 78.3182C266.818 78.3182 267.574 79.4716 267.574 81.1222C267.574 82.8125 266.798 83.8267 265.386 83.8267ZM274.076 85.1591C275.627 85.1591 276.761 84.3835 277.119 83.2301L275.985 82.9119C275.687 83.7074 274.996 84.1051 274.076 84.1051C272.699 84.1051 271.75 83.2152 271.695 81.5795H277.238V81.0824C277.238 78.2386 275.548 77.2642 273.957 77.2642C271.889 77.2642 270.517 78.8949 270.517 81.2415C270.517 83.5881 271.869 85.1591 274.076 85.1591ZM271.695 80.5653C271.775 79.3771 272.615 78.3182 273.957 78.3182C275.23 78.3182 276.045 79.2727 276.045 80.5653H271.695ZM286.063 85.1591C288.131 85.1591 289.523 83.5881 289.523 81.2216C289.523 78.8352 288.131 77.2642 286.063 77.2642C283.995 77.2642 282.603 78.8352 282.603 81.2216C282.603 83.5881 283.995 85.1591 286.063 85.1591ZM286.063 84.1051C284.492 84.1051 283.776 82.7528 283.776 81.2216C283.776 79.6903 284.492 78.3182 286.063 78.3182C287.634 78.3182 288.35 79.6903 288.35 81.2216C288.35 82.7528 287.634 84.1051 286.063 84.1051ZM291.314 85H292.487V80.1676C292.487 79.1335 293.303 78.3778 294.416 78.3778C294.73 78.3778 295.053 78.4375 295.132 78.4574V77.2642C294.998 77.2543 294.69 77.2443 294.516 77.2443C293.601 77.2443 292.806 77.7614 292.527 78.517H292.448V77.3636H291.314V85ZM299.174 85.1591C300.646 85.1591 301.143 84.2443 301.401 83.8267H301.541V85H302.674V74.8182H301.501V78.5767H301.401C301.143 78.179 300.686 77.2642 299.194 77.2642C297.265 77.2642 295.933 78.7955 295.933 81.2017C295.933 83.6278 297.265 85.1591 299.174 85.1591ZM299.333 84.1051C297.862 84.1051 297.106 82.8125 297.106 81.1818C297.106 79.571 297.842 78.3182 299.333 78.3182C300.765 78.3182 301.521 79.4716 301.521 81.1818C301.521 82.9119 300.745 84.1051 299.333 84.1051ZM308.188 85.1591C309.739 85.1591 310.872 84.3835 311.23 83.2301L310.097 82.9119C309.798 83.7074 309.107 84.1051 308.188 84.1051C306.811 84.1051 305.861 83.2152 305.806 81.5795H311.35V81.0824C311.35 78.2386 309.659 77.2642 308.068 77.2642C306 77.2642 304.628 78.8949 304.628 81.2415C304.628 83.5881 305.98 85.1591 308.188 85.1591ZM305.806 80.5653C305.886 79.3771 306.726 78.3182 308.068 78.3182C309.341 78.3182 310.156 79.2727 310.156 80.5653H305.806ZM313.134 85H314.308V80.1676C314.308 79.1335 315.123 78.3778 316.237 78.3778C316.55 78.3778 316.873 78.4375 316.953 78.4574V77.2642C316.818 77.2543 316.51 77.2443 316.336 77.2443C315.421 77.2443 314.626 77.7614 314.347 78.517H314.268V77.3636H313.134V85Z" fill="#6E8BB7"/>
<path d="M225.918 129.886H239.881V135H245.761V129.886H249.369V124.957H245.761V105.909H238.062L225.918 125.043V129.886ZM239.994 124.957H232.111V124.73L239.767 112.614H239.994V124.957ZM264.874 135.639C272.189 135.639 276.607 130.071 276.621 120.483C276.635 110.966 272.161 105.511 264.874 105.511C257.572 105.511 253.141 110.952 253.126 120.483C253.098 130.043 257.544 135.625 264.874 135.639ZM264.874 130.54C261.536 130.54 259.376 127.188 259.391 120.483C259.405 113.878 261.55 110.554 264.874 110.554C268.183 110.554 270.342 113.878 270.342 120.483C270.357 127.188 268.197 130.54 264.874 130.54ZM296.93 129.545C296.944 133.04 299.174 136.009 303.336 136.009C307.455 136.009 309.756 133.04 309.742 129.545V128.011C309.756 124.489 307.512 121.548 303.336 121.548C299.231 121.548 296.944 124.517 296.93 128.011V129.545ZM282.001 112.898C282.015 116.392 284.245 119.332 288.393 119.332C292.526 119.332 294.827 116.42 294.813 112.898V111.364C294.827 107.841 292.583 104.901 288.393 104.901C284.33 104.901 282.015 107.841 282.001 111.364V112.898ZM283.393 135H287.1L307.1 105.909H303.393L283.393 135ZM301.063 128.011C301.077 126.619 301.631 125.185 303.336 125.185C305.126 125.185 305.594 126.619 305.58 128.011V129.545C305.594 130.938 305.069 132.344 303.336 132.344C301.603 132.344 301.077 130.895 301.063 129.545V128.011ZM286.163 111.364C286.177 110.014 286.702 108.537 288.393 108.537C290.183 108.537 290.665 109.972 290.651 111.364V112.898C290.665 114.29 290.126 115.696 288.393 115.696C286.717 115.696 286.177 114.29 286.163 112.898V111.364Z" fill="#A23FEE"/>
</svg>
