<svg width="279" height="227" viewBox="0 0 279 227" fill="none" xmlns="http://www.w3.org/2000/svg">
<rect width="278.176" height="227" rx="6" fill="white"/>
<path d="M26.8212 41H33.0456V39.9062H28.0542V36.446H32.6479V35.3523H28.0542V31.9119H32.9661V30.8182H26.8212V41ZM37.2765 41.179C38.6089 41.179 39.3049 40.4631 39.5435 39.9659H39.6032V41H40.7765V35.9688C40.7765 33.5426 38.927 33.2642 37.9526 33.2642C36.7992 33.2642 35.4867 33.6619 34.8901 35.054L36.0037 35.4517C36.2623 34.8949 36.8738 34.2983 37.9924 34.2983C39.0712 34.2983 39.6032 34.87 39.6032 35.8494V35.8892C39.6032 36.456 39.0265 36.4062 37.6344 36.5852C36.2175 36.7692 34.6714 37.0824 34.6714 38.8324C34.6714 40.3239 35.8248 41.179 37.2765 41.179ZM37.4554 40.125C36.5208 40.125 35.8446 39.7074 35.8446 38.892C35.8446 37.9972 36.66 37.7188 37.5748 37.5994C38.0719 37.5398 39.4043 37.4006 39.6032 37.1619V38.2358C39.6032 39.1903 38.8475 40.125 37.4554 40.125ZM42.918 41H44.0913V36.1676C44.0913 35.1335 44.9066 34.3778 46.0203 34.3778C46.3335 34.3778 46.6566 34.4375 46.7362 34.4574V33.2642C46.6019 33.2543 46.2937 33.2443 46.1197 33.2443C45.2049 33.2443 44.4095 33.7614 44.131 34.517H44.0515V33.3636H42.918V41ZM49.3003 36.4062C49.3003 35.0739 50.1255 34.3182 51.2491 34.3182C52.3379 34.3182 52.9991 35.0291 52.9991 36.2273V41H54.1724V36.1477C54.1724 34.1989 53.1334 33.2642 51.5872 33.2642C50.4338 33.2642 49.7179 33.7812 49.3599 34.5568H49.2605V33.3636H48.127V41H49.3003V36.4062ZM56.3164 41H57.4897V33.3636H56.3164V41ZM56.913 32.0909C57.3704 32.0909 57.7482 31.733 57.7482 31.2955C57.7482 30.858 57.3704 30.5 56.913 30.5C56.4556 30.5 56.0778 30.858 56.0778 31.2955C56.0778 31.733 56.4556 32.0909 56.913 32.0909ZM60.812 36.4062C60.812 35.0739 61.6373 34.3182 62.7608 34.3182C63.8496 34.3182 64.5108 35.0291 64.5108 36.2273V41H65.6841V36.1477C65.6841 34.1989 64.6451 33.2642 63.0989 33.2642C61.9455 33.2642 61.2296 33.7812 60.8716 34.5568H60.7722V33.3636H59.6387V41H60.812V36.4062ZM70.9105 44.0227C72.7401 44.0227 74.2117 43.1875 74.2117 41.2188V33.3636H73.0781V34.5767H72.9588C72.7003 34.179 72.223 33.2642 70.7315 33.2642C68.8026 33.2642 67.4702 34.7955 67.4702 37.142C67.4702 39.5284 68.8622 40.8807 70.7117 40.8807C72.2031 40.8807 72.6804 40.0057 72.9389 39.5881H73.0384V41.1392C73.0384 42.4119 72.1435 42.9886 70.9105 42.9886C69.5234 42.9886 69.0362 42.2578 68.723 41.8352L67.7884 42.4915C68.2656 43.2919 69.2053 44.0227 70.9105 44.0227ZM70.8707 39.8267C69.3992 39.8267 68.6435 38.7131 68.6435 37.1222C68.6435 35.571 69.3793 34.3182 70.8707 34.3182C72.3026 34.3182 73.0582 35.4716 73.0582 37.1222C73.0582 38.8125 72.2827 39.8267 70.8707 39.8267ZM83.6179 33.3636H81.9872V31.5341H80.8139V33.3636H79.6605V34.358H80.8139V39.1307C80.8139 40.4631 81.8878 41.0994 82.8821 41.0994C83.3196 41.0994 83.598 41.0199 83.7571 40.9602L83.5185 39.9062C83.419 39.9261 83.26 39.9659 83.0014 39.9659C82.4844 39.9659 81.9872 39.8068 81.9872 38.8125V34.358H83.6179V33.3636ZM86.7202 36.4062C86.7202 35.0739 87.5703 34.3182 88.7287 34.3182C89.8324 34.3182 90.4986 35.0142 90.4986 36.2273V41H91.6719V36.1477C91.6719 34.1839 90.6279 33.2642 89.0668 33.2642C87.8636 33.2642 87.1776 33.7663 86.8196 34.5568H86.7202V30.8182H85.5469V41H86.7202V36.4062ZM93.8184 41H94.9917V33.3636H93.8184V41ZM94.415 32.0909C94.8723 32.0909 95.2502 31.733 95.2502 31.2955C95.2502 30.858 94.8723 30.5 94.415 30.5C93.9576 30.5 93.5797 30.858 93.5797 31.2955C93.5797 31.733 93.9576 32.0909 94.415 32.0909ZM102.55 35.0739C102.182 33.9901 101.357 33.2642 99.8452 33.2642C98.2344 33.2642 97.0412 34.179 97.0412 35.4716C97.0412 36.5256 97.6676 37.2315 99.0696 37.5597L100.342 37.858C101.113 38.0369 101.476 38.4048 101.476 38.9318C101.476 39.5881 100.78 40.125 99.6861 40.125C98.7266 40.125 98.125 39.7124 97.9162 38.892L96.8026 39.1705C97.076 40.468 98.1449 41.1591 99.706 41.1591C101.481 41.1591 102.689 40.1896 102.689 38.8722C102.689 37.8082 102.023 37.1371 100.661 36.804L99.527 36.5256C98.6222 36.3018 98.2145 35.9986 98.2145 35.4119C98.2145 34.7557 98.9105 34.2784 99.8452 34.2784C100.869 34.2784 101.292 34.8452 101.496 35.3722L102.55 35.0739ZM108.393 41H109.566V36.2273C109.566 35.1087 110.381 34.3182 111.296 34.3182C112.186 34.3182 112.807 34.8999 112.807 35.7699V41H114.001V36.0284C114.001 35.044 114.617 34.3182 115.691 34.3182C116.526 34.3182 117.242 34.7607 117.242 35.8892V41H118.415V35.8892C118.415 34.0945 117.451 33.2642 116.089 33.2642C114.995 33.2642 114.194 33.7663 113.802 34.5568H113.722C113.344 33.7415 112.678 33.2642 111.674 33.2642C110.68 33.2642 109.944 33.7415 109.626 34.5568H109.526V33.3636H108.393V41ZM123.663 41.1591C125.731 41.1591 127.123 39.5881 127.123 37.2216C127.123 34.8352 125.731 33.2642 123.663 33.2642C121.595 33.2642 120.203 34.8352 120.203 37.2216C120.203 39.5881 121.595 41.1591 123.663 41.1591ZM123.663 40.1051C122.092 40.1051 121.376 38.7528 121.376 37.2216C121.376 35.6903 122.092 34.3182 123.663 34.3182C125.234 34.3182 125.95 35.6903 125.95 37.2216C125.95 38.7528 125.234 40.1051 123.663 40.1051ZM130.087 36.4062C130.087 35.0739 130.913 34.3182 132.036 34.3182C133.125 34.3182 133.786 35.0291 133.786 36.2273V41H134.96V36.1477C134.96 34.1989 133.92 33.2642 132.374 33.2642C131.221 33.2642 130.505 33.7812 130.147 34.5568H130.048V33.3636H128.914V41H130.087V36.4062ZM140.425 33.3636H138.794V31.5341H137.621V33.3636H136.467V34.358H137.621V39.1307C137.621 40.4631 138.694 41.0994 139.689 41.0994C140.126 41.0994 140.405 41.0199 140.564 40.9602L140.325 39.9062C140.226 39.9261 140.067 39.9659 139.808 39.9659C139.291 39.9659 138.794 39.8068 138.794 38.8125V34.358H140.425V33.3636ZM143.527 36.4062C143.527 35.0739 144.377 34.3182 145.535 34.3182C146.639 34.3182 147.305 35.0142 147.305 36.2273V41H148.479V36.1477C148.479 34.1839 147.434 33.2642 145.873 33.2642C144.67 33.2642 143.984 33.7663 143.626 34.5568H143.527V30.8182H142.354V41H143.527V36.4062Z" fill="#6E8BB7"/>
<path d="M32.4831 87.1818H34.4945L34.5116 85.2131C38.2019 84.9318 40.3411 82.9716 40.3496 80.0142C40.3411 77.108 38.1508 75.5653 35.1167 74.8835L34.6138 74.7642L34.6479 70.5028C35.7814 70.767 36.4718 71.4915 36.5741 72.5653H40.111C40.0684 69.7443 37.9633 67.7244 34.682 67.3665L34.6991 65.3636H32.6877L32.6706 67.3494C29.3383 67.6733 26.986 69.6847 27.003 72.5909C26.9945 75.1648 28.8098 76.6392 31.7587 77.3466L32.5769 77.5511L32.5343 82.0597C31.1451 81.7955 30.2076 80.9432 30.1138 79.5199H26.5428C26.628 82.9631 28.8866 84.8892 32.5002 85.2045L32.4831 87.1818ZM34.5456 82.0597L34.5797 78.0795C35.9008 78.4972 36.6167 79.0341 36.6252 80.0057C36.6167 81.0369 35.8326 81.804 34.5456 82.0597ZM32.6025 74.2443C31.5371 73.8778 30.7701 73.3239 30.7871 72.3438C30.7871 71.4318 31.4348 70.7244 32.6366 70.4773L32.6025 74.2443ZM49.4285 85.2386C53.3148 85.2557 55.9654 82.7074 55.9569 79.1534C55.9654 75.8807 53.6813 73.5199 50.5875 73.5199C48.6699 73.5199 46.9739 74.4403 46.1898 75.983H46.0705C46.0875 72.5824 47.2807 70.4688 49.5563 70.4688C50.8944 70.4688 51.8574 71.2017 52.1387 72.4205H55.7779C55.4285 69.5483 53.0421 67.3068 49.5563 67.3068C45.2438 67.3068 42.4739 70.8011 42.4569 76.6648C42.4483 83.0568 45.8404 85.2216 49.4285 85.2386ZM49.4114 82.3409C47.7069 82.3409 46.4455 80.9688 46.4455 79.2642C46.454 77.5682 47.741 76.1875 49.437 76.1875C51.1415 76.1875 52.3858 77.5256 52.3773 79.2557C52.3858 81.0028 51.116 82.3409 49.4114 82.3409ZM61.8269 82.6136H58.8269L58.7843 83.5682C58.682 85.8864 58.0172 88.2642 57.7701 89.2614H60.1223C60.5314 88.2301 61.503 85.8097 61.7331 83.5511L61.8269 82.6136ZM65.1124 85H77.5556V81.983H70.226V81.8636L72.7743 79.3665C76.3624 76.0938 77.3255 74.4574 77.3255 72.4716C77.3255 69.446 74.8539 67.3068 71.1124 67.3068C67.4476 67.3068 64.9334 69.4972 64.942 72.9233H68.4448C68.4363 71.2528 69.4931 70.2301 71.0868 70.2301C72.6209 70.2301 73.763 71.1847 73.763 72.7188C73.763 74.108 72.9107 75.0625 71.3255 76.5881L65.1124 82.3409V85ZM86.6046 85.2386C90.491 85.2386 93.133 82.7074 93.1245 79.179C93.133 75.8381 90.7978 73.4347 87.6529 73.4347C86.1188 73.4347 84.7978 74.0739 84.1841 74.9347H84.0819L84.5336 70.5625H92.1614V67.5455H81.491L80.6643 76.75L83.9455 77.3381C84.4824 76.6136 85.5222 76.1619 86.5535 76.1619C88.3091 76.1705 89.5705 77.4403 89.5705 79.2727C89.5705 81.0881 88.3347 82.3409 86.6046 82.3409C85.1387 82.3409 83.954 81.4205 83.8688 80.0653H80.2893C80.3574 83.0824 82.991 85.2386 86.6046 85.2386ZM102.542 85.3835C106.931 85.3835 109.582 82.0426 109.59 76.2898C109.599 70.5795 106.914 67.3068 102.542 67.3068C98.1614 67.3068 95.5023 70.571 95.4938 76.2898C95.4768 82.0256 98.1444 85.375 102.542 85.3835ZM102.542 82.3239C100.539 82.3239 99.2438 80.3125 99.2523 76.2898C99.2608 72.3267 100.548 70.3324 102.542 70.3324C104.528 70.3324 105.823 72.3267 105.823 76.2898C105.832 80.3125 104.536 82.3239 102.542 82.3239Z" fill="#303940"/>
<rect x="161.588" y="56" width="91" height="40" rx="12" fill="#1AC19D" fill-opacity="0.15"/>
<path d="M177.516 80.3984H179.077V77.7386H181.737V76.1776H179.077V73.5178H177.516V76.1776H174.856V77.7386H177.516V80.3984ZM183.571 81H190.551V79.4588H186.117V79.3892L187.872 77.6044C189.85 75.7053 190.397 74.7805 190.397 73.6321C190.397 71.9268 189.01 70.679 186.962 70.679C184.943 70.679 183.512 71.9318 183.512 73.8658H185.267C185.267 72.8267 185.923 72.1754 186.937 72.1754C187.906 72.1754 188.627 72.767 188.627 73.7266C188.627 74.5767 188.11 75.1832 187.106 76.2024L183.571 79.6676V81ZM195.806 81.1392C197.959 81.1392 199.46 79.6776 199.46 77.6541C199.46 75.6953 198.098 74.2834 196.249 74.2834C195.423 74.2834 194.693 74.6115 194.315 75.0589H194.255L194.548 72.3594H198.928V70.8182H193.022L192.49 76.0682L194.156 76.3416C194.499 75.9638 195.145 75.7102 195.757 75.7152C196.875 75.7202 197.681 76.5455 197.676 77.6989C197.681 78.8374 196.895 79.6477 195.806 79.6477C194.887 79.6477 194.146 79.0661 194.081 78.2308H192.291C192.341 79.9212 193.818 81.1392 195.806 81.1392ZM206.57 79.0909C206.575 80.2741 207.325 81.2834 208.722 81.2834C210.115 81.2834 210.88 80.2741 210.875 79.0909V78.554C210.88 77.3608 210.134 76.3615 208.722 76.3615C207.345 76.3615 206.575 77.3707 206.57 78.554V79.0909ZM201.394 73.2642C201.399 74.4474 202.15 75.4467 203.552 75.4467C204.939 75.4467 205.705 74.4574 205.7 73.2642V72.7273C205.705 71.5341 204.959 70.5348 203.552 70.5348C202.18 70.5348 201.399 71.5341 201.394 72.7273V73.2642ZM201.842 81H203.09L210.09 70.8182H208.842L201.842 81ZM207.867 78.554C207.872 78.027 208.096 77.495 208.722 77.495C209.379 77.495 209.573 78.027 209.568 78.554V79.0909C209.573 79.6179 209.359 80.1399 208.722 80.1399C208.086 80.1399 207.872 79.6129 207.867 79.0909V78.554ZM202.702 72.7273C202.707 72.2053 202.921 71.6683 203.552 71.6683C204.208 71.6683 204.397 72.2003 204.392 72.7273V73.2642C204.397 73.7912 204.188 74.3132 203.552 74.3132C202.916 74.3132 202.707 73.7912 202.702 73.2642V72.7273Z" fill="#1AC19D"/>
<rect x="220.588" y="64" width="24" height="24" rx="12" fill="#1AC19D" fill-opacity="0.2"/>
<path d="M235.175 77.8067L232.588 75.22L230.002 77.8067C229.742 78.0667 229.322 78.0667 229.062 77.8067C228.802 77.5467 228.802 77.1267 229.062 76.8667L232.122 73.8067C232.382 73.5467 232.802 73.5467 233.062 73.8067L236.122 76.8667C236.382 77.1267 236.382 77.5467 236.122 77.8067C235.862 78.06 235.435 78.0667 235.175 77.8067Z" fill="#1AC19D"/>
<path d="M24 193.632C24 193.632 33.0809 173.034 42.6664 173.034C52.2518 173.034 51.9995 183.587 58.4319 183.587C64.8642 183.587 66.3777 152.816 77.2244 152.816C88.071 152.816 85.2963 163.243 91.9809 163.243C98.6655 163.243 100.179 132.726 112.413 132.726C124.647 132.726 122.755 152.816 128.557 152.816C134.359 152.816 132.214 142.39 138.647 142.39C147.349 142.39 151.511 172.398 161.349 172.398C171.187 172.398 166.52 152.816 176.736 152.816C186.952 152.816 183.673 183.587 197.547 183.587C210.159 183.587 209.402 132.726 222.141 132.726C233.114 132.726 228.699 152.816 238.663 152.816C248.627 152.816 243.078 112 254.176 112" stroke="#A23FEE" stroke-width="2"/>
<path d="M42.6664 172.667C33.0809 172.667 24 193.142 24 193.142V203H254.176V112C243.078 112 248.627 152.571 238.663 152.571C228.699 152.571 233.114 132.601 222.141 132.601C209.402 132.601 210.159 183.157 197.547 183.157C183.673 183.157 186.952 152.571 176.736 152.571C166.52 152.571 171.187 172.035 161.349 172.035C151.511 172.035 147.349 142.207 138.647 142.207C132.214 142.207 134.359 152.571 128.557 152.571C122.755 152.571 124.647 132.601 112.413 132.601C100.179 132.601 98.6655 162.935 91.9809 162.935C85.2963 162.935 88.071 152.571 77.2244 152.571C66.3777 152.571 64.8642 183.157 58.4319 183.157C51.9995 183.157 52.2518 172.667 42.6664 172.667Z" fill="url(#paint0_linear_88_5028)"/>
<defs>
<linearGradient id="paint0_linear_88_5028" x1="139.088" y1="112" x2="139.088" y2="203" gradientUnits="userSpaceOnUse">
<stop stop-color="#A23FEE" stop-opacity="0.8"/>
<stop offset="1" stop-color="#A23FEE" stop-opacity="0.1"/>
</linearGradient>
</defs>
</svg>
