<svg width="271" height="120" viewBox="0 0 271 120" fill="none" xmlns="http://www.w3.org/2000/svg">
<rect width="271" height="120" rx="6" fill="white"/>
<path d="M25.4148 53H37.858V49.983H30.5284V49.8636L33.0767 47.3665C36.6648 44.0938 37.6278 42.4574 37.6278 40.4716C37.6278 37.446 35.1562 35.3068 31.4148 35.3068C27.75 35.3068 25.2358 37.4972 25.2443 40.9233H28.7472C28.7386 39.2528 29.7955 38.2301 31.3892 38.2301C32.9233 38.2301 34.0653 39.1847 34.0653 40.7188C34.0653 42.108 33.2131 43.0625 31.6278 44.5881L25.4148 50.3409V53ZM39.8928 49.9318H48.2706V53H51.799V49.9318H53.9638V46.9744H51.799V35.5455H47.1797L39.8928 47.0256V49.9318ZM48.3388 46.9744H43.6087V46.8381L48.2024 39.5682H48.3388V46.9744Z" fill="#4094F7"/>
<path d="M28.733 80.0312C26.4659 80.0312 24.8352 81.6818 24.8352 84.0682C24.8352 86.4545 26.4659 88.0852 28.733 88.0852H28.9318V89.4176H30.1648V88.0852H30.3438C32.6108 88.0852 34.2415 86.4347 34.2415 84.0483C34.2415 81.6619 32.6108 80.0312 30.3438 80.0312H30.1648V78.6392H28.9318V80.0312H28.733ZM28.733 81.125H28.9318V86.9915H28.733C27.0028 86.9915 26.0682 85.8381 26.0682 84.0682C26.0682 82.2784 27.0028 81.125 28.733 81.125ZM30.1648 81.125H30.3438C32.0739 81.125 33.0085 82.2784 33.0085 84.0483C33.0085 85.8381 32.0739 86.9915 30.3438 86.9915H30.1648V81.125ZM37.3214 87.2699V81.3636H36.1481V89H37.5202L41.1793 83.0938V89H42.3526V81.3636H41.0004L37.3214 87.2699ZM43.8255 89H44.2232C45.9135 89 46.4007 87.6875 46.5101 85.1818L46.6294 82.4574H49.4334V89H50.6067V81.3636H45.5158L45.3766 84.7443C45.2772 87.3097 45.0186 87.9062 44.1039 87.9062H43.8255V89ZM53.9327 87.2699V81.3636H52.7594V89H54.1316L57.7907 83.0938V89H58.964V81.3636H57.6117L53.9327 87.2699ZM63.3601 89.179C64.6925 89.179 65.3885 88.4631 65.6271 87.9659H65.6868V89H66.8601V83.9688C66.8601 81.5426 65.0107 81.2642 64.0362 81.2642C62.8828 81.2642 61.5703 81.6619 60.9737 83.054L62.0874 83.4517C62.3459 82.8949 62.9574 82.2983 64.076 82.2983C65.1548 82.2983 65.6868 82.87 65.6868 83.8494V83.8892C65.6868 84.456 65.1101 84.4062 63.718 84.5852C62.3011 84.7692 60.755 85.0824 60.755 86.8324C60.755 88.3239 61.9084 89.179 63.3601 89.179ZM63.5391 88.125C62.6044 88.125 61.9283 87.7074 61.9283 86.892C61.9283 85.9972 62.7436 85.7188 63.6584 85.5994C64.1555 85.5398 65.4879 85.4006 65.6868 85.1619V86.2358C65.6868 87.1903 64.9311 88.125 63.5391 88.125ZM68.3255 89H68.7232C70.4135 89 70.9007 87.6875 71.0101 85.1818L71.1294 82.4574H73.9334V89H75.1067V81.3636H70.0158L69.8766 84.7443C69.7772 87.3097 69.5186 87.9062 68.6039 87.9062H68.3255V89ZM78.4327 84.1278V81.3636H77.2594V89H80.4611C82.2509 89 83.2253 87.9062 83.2253 86.5341C83.2253 85.142 82.2509 84.1278 80.4611 84.1278H78.4327ZM84.4384 89H85.6117V81.3636H84.4384V89ZM78.4327 85.2216H80.4611C81.3908 85.2216 82.052 85.7884 82.052 86.5938C82.052 87.3643 81.3908 87.9062 80.4611 87.9062H78.4327V85.2216Z" fill="#6E8BB7"/>
<rect x="175" y="24" width="72" height="72" rx="6" fill="#4094F7" fill-opacity="0.15"/>
<path d="M224.215 51.4364V46.8614C224.215 46.2292 223.704 45.7185 223.072 45.7185H198.929C198.297 45.7185 197.786 46.2292 197.786 46.8614V51.4364C197.19 51.4721 196.715 51.9685 196.715 52.5756V57.2792C196.713 58.1437 196.888 58.9994 197.229 59.7935C197.383 60.1578 197.572 60.5006 197.786 60.8256V73.1471C197.786 73.7756 198.297 74.2899 198.929 74.2899H223.072C223.704 74.2899 224.215 73.7792 224.215 73.1471V60.8256C224.433 60.4998 224.619 60.1543 224.772 59.7935C225.111 58.9971 225.286 58.1506 225.286 57.2792V52.5756C225.286 51.9685 224.811 51.4721 224.215 51.4364ZM200.358 48.2899H221.643V51.4328H200.358V48.2899ZM213.286 71.7221H208.715V68.0042H213.286V71.7221ZM221.643 71.7221H215.572V66.8614C215.572 66.2292 215.061 65.7185 214.429 65.7185H207.572C206.94 65.7185 206.429 66.2292 206.429 66.8614V71.7221H200.358V63.0721C200.461 63.1221 200.568 63.1721 200.679 63.2149C201.476 63.5506 202.322 63.7185 203.193 63.7185C204.065 63.7185 204.908 63.5506 205.708 63.2149C206.201 63.0078 206.665 62.7435 207.09 62.4256C207.097 62.4221 207.104 62.4221 207.111 62.4256C207.538 62.7449 208.002 63.01 208.493 63.2149C209.29 63.5506 210.136 63.7185 211.008 63.7185C211.879 63.7185 212.722 63.5506 213.522 63.2149C214.015 63.0078 214.479 62.7435 214.904 62.4256C214.911 62.4221 214.918 62.4221 214.926 62.4256C215.352 62.7449 215.816 63.01 216.308 63.2149C217.104 63.5506 217.951 63.7185 218.822 63.7185C219.693 63.7185 220.536 63.5506 221.336 63.2149C221.443 63.1685 221.551 63.1221 221.658 63.0721V71.7221H221.643ZM222.715 57.2792C222.715 59.4149 220.965 61.1471 218.811 61.1471C217.354 61.1471 216.083 60.3578 215.411 59.1864C215.308 59.0078 215.122 58.8971 214.915 58.8971H214.893C214.69 58.8971 214.501 59.0078 214.397 59.1864C214.054 59.7839 213.56 60.2801 212.963 60.6245C212.367 60.9689 211.689 61.1492 211.001 61.1471C209.547 61.1471 208.279 60.3614 207.608 59.1935C207.501 59.0114 207.308 58.8971 207.097 58.8971C206.886 58.8971 206.69 59.0114 206.586 59.1935C206.242 59.7888 205.746 60.2828 205.15 60.6257C204.554 60.9687 203.878 61.1485 203.19 61.1471C201.036 61.1471 199.286 59.4149 199.286 57.2792V54.0221C199.286 54.0114 199.293 54.0042 199.304 54.0042H222.697C222.708 54.0042 222.715 54.0114 222.715 54.0221V57.2792Z" fill="#4094F7"/>
</svg>
