<svg width="271" height="120" viewBox="0 0 271 120" fill="none" xmlns="http://www.w3.org/2000/svg">
<rect width="271" height="120" rx="6" fill="white"/>
<path d="M33.0085 35.5455H29.5398L25.2188 38.2812V41.554L29.2159 39.0483H29.3182V53H33.0085V35.5455ZM44.7507 35.5455H41.282L36.9609 38.2812V41.554L40.9581 39.0483H41.0604V53H44.7507V35.5455ZM55.7429 53.3835C60.1321 53.3835 62.7827 50.0426 62.7912 44.2898C62.7997 38.5795 60.1151 35.3068 55.7429 35.3068C51.3622 35.3068 48.7031 38.571 48.6946 44.2898C48.6776 50.0256 51.3452 53.375 55.7429 53.3835ZM55.7429 50.3239C53.7401 50.3239 52.4446 48.3125 52.4531 44.2898C52.4616 40.3267 53.7486 38.3324 55.7429 38.3324C57.7287 38.3324 59.0241 40.3267 59.0241 44.2898C59.0327 48.3125 57.7372 50.3239 55.7429 50.3239ZM68.6761 50.6136H65.6761L65.6335 51.5682C65.5312 53.8864 64.8665 56.2642 64.6193 57.2614H66.9716C67.3807 56.2301 68.3523 53.8097 68.5824 51.5511L68.6761 50.6136ZM77.7699 53.2386C81.7074 53.2386 84.5369 51.1335 84.5455 48.304C84.5369 46.1222 82.858 44.3409 80.7614 43.9915V43.8722C82.5852 43.4972 83.8892 41.9205 83.8977 40.0028C83.8892 37.3011 81.2983 35.3068 77.7699 35.3068C74.233 35.3068 71.642 37.3011 71.6506 40.0028C71.642 41.9119 72.929 43.4972 74.7869 43.8722V43.9915C72.6562 44.3409 70.9943 46.1222 71.0028 48.304C70.9943 51.1335 73.8324 53.2386 77.7699 53.2386ZM77.7699 50.5284C76.0142 50.5284 74.8381 49.4886 74.8381 48.0142C74.8381 46.5057 76.0739 45.4148 77.7699 45.4148C79.4574 45.4148 80.7017 46.5057 80.7017 48.0142C80.7017 49.4972 79.517 50.5284 77.7699 50.5284ZM77.7699 42.7301C76.2955 42.7301 75.2472 41.767 75.2472 40.3864C75.2472 39.0227 76.2784 38.0852 77.7699 38.0852C79.2528 38.0852 80.2926 39.0312 80.2926 40.3864C80.2926 41.767 79.2358 42.7301 77.7699 42.7301ZM87.1257 53H99.5689V49.983H92.2393V49.8636L94.7876 47.3665C98.3757 44.0938 99.3388 42.4574 99.3388 40.4716C99.3388 37.446 96.8672 35.3068 93.1257 35.3068C89.4609 35.3068 86.9467 37.4972 86.9553 40.9233H90.4581C90.4496 39.2528 91.5064 38.2301 93.1001 38.2301C94.6342 38.2301 95.7763 39.1847 95.7763 40.7188C95.7763 42.108 94.924 43.0625 93.3388 44.5881L87.1257 50.3409V53ZM108.695 53.2386C112.615 53.2386 115.419 51.0824 115.411 48.0994C115.419 45.9261 114.038 44.375 111.473 44.0511V43.9148C113.425 43.5653 114.771 42.1847 114.763 40.2244C114.771 37.4716 112.359 35.3068 108.746 35.3068C105.166 35.3068 102.473 37.4034 102.422 40.4205H105.959C106.001 39.0909 107.22 38.2301 108.729 38.2301C110.22 38.2301 111.217 39.1335 111.209 40.446C111.217 41.8182 110.05 42.7472 108.371 42.7472H106.743V45.4574H108.371C110.348 45.4574 111.584 46.446 111.575 47.8523C111.584 49.2415 110.391 50.196 108.703 50.196C107.075 50.196 105.857 49.3438 105.788 48.0653H102.072C102.132 51.1165 104.859 53.2386 108.695 53.2386Z" fill="#4094F7"/>
<path d="M31.2188 89H32.6903L28.4347 83.2926L32.5511 78.8182H31.0795L27.0028 83.233H26.4659V78.8182H25.233V89H26.4659V84.3267H27.7188L31.2188 89ZM33.4485 89H33.8462C35.5366 89 36.0238 87.6875 36.1332 85.1818L36.2525 82.4574H39.0565V89H40.2298V81.3636H35.1388L34.9996 84.7443C34.9002 87.3097 34.6417 87.9062 33.7269 87.9062H33.4485V89ZM43.5558 87.2699V81.3636H42.3825V89H43.7546L47.4137 83.0938V89H48.587V81.3636H47.2347L43.5558 87.2699ZM53.9377 89.1591C55.4888 89.1591 56.6223 88.3835 56.9803 87.2301L55.8468 86.9119C55.5485 87.7074 54.8574 88.1051 53.9377 88.1051C52.5605 88.1051 51.611 87.2152 51.5563 85.5795H57.0996V85.0824C57.0996 82.2386 55.4093 81.2642 53.8184 81.2642C51.7502 81.2642 50.378 82.8949 50.378 85.2415C50.378 87.5881 51.7303 89.1591 53.9377 89.1591ZM51.5563 84.5653C51.6358 83.3771 52.476 82.3182 53.8184 82.3182C55.0911 82.3182 55.9064 83.2727 55.9064 84.5653H51.5563ZM60.0577 81.3636H58.8844V89H60.0577V85.7386H63.7168V89H64.8901V81.3636H63.7168V84.6449H60.0577V81.3636ZM65.9938 82.4574H68.5194V89H69.6926V82.4574H72.1983V81.3636H65.9938V82.4574ZM75.0831 84.1278V81.3636H73.9098V89H77.1115C78.9013 89 79.8757 87.9062 79.8757 86.5341C79.8757 85.142 78.9013 84.1278 77.1115 84.1278H75.0831ZM81.0888 89H82.2621V81.3636H81.0888V89ZM75.0831 85.2216H77.1115C78.0412 85.2216 78.7024 85.7884 78.7024 86.5938C78.7024 87.3643 78.0412 87.9062 77.1115 87.9062H75.0831V85.2216Z" fill="#6E8BB7"/>
<rect x="175" y="24" width="72" height="72" rx="6" fill="#4094F7" fill-opacity="0.15"/>
<path d="M209.667 54.6667C209.667 55.7276 209.245 56.745 208.495 57.4951C207.745 58.2453 206.728 58.6667 205.667 58.6667C204.606 58.6667 203.588 58.2453 202.838 57.4951C202.088 56.745 201.667 55.7276 201.667 54.6667C201.667 53.6058 202.088 52.5884 202.838 51.8383C203.588 51.0881 204.606 50.6667 205.667 50.6667C206.728 50.6667 207.745 51.0881 208.495 51.8383C209.245 52.5884 209.667 53.6058 209.667 54.6667ZM220.333 54.6667C220.333 55.192 220.23 55.7121 220.029 56.1974C219.828 56.6827 219.533 57.1237 219.162 57.4951C218.79 57.8665 218.349 58.1612 217.864 58.3622C217.379 58.5632 216.859 58.6667 216.333 58.6667C215.808 58.6667 215.288 58.5632 214.803 58.3622C214.317 58.1612 213.876 57.8665 213.505 57.4951C213.133 57.1237 212.839 56.6827 212.638 56.1974C212.437 55.7121 212.333 55.192 212.333 54.6667C212.333 53.6058 212.755 52.5884 213.505 51.8383C214.255 51.0881 215.272 50.6667 216.333 50.6667C217.394 50.6667 218.412 51.0881 219.162 51.8383C219.912 52.5884 220.333 53.6058 220.333 54.6667ZM214.907 69.3334C214.968 68.8974 215 68.4534 215 68C215.003 65.9052 214.298 63.8707 213 62.2267C214.013 61.6416 215.163 61.3335 216.333 61.3335C217.504 61.3335 218.653 61.6415 219.667 62.2266C220.68 62.8117 221.522 63.6533 222.107 64.6667C222.692 65.6802 223 66.8298 223 68V69.3334H214.907ZM205.667 61.3334C207.435 61.3334 209.13 62.0357 210.381 63.286C211.631 64.5362 212.333 66.2319 212.333 68V69.3334H199V68C199 66.2319 199.702 64.5362 200.953 63.286C202.203 62.0357 203.899 61.3334 205.667 61.3334Z" fill="#4094F7"/>
</svg>
