<svg width="271" height="120" viewBox="0 0 271 120" fill="none" xmlns="http://www.w3.org/2000/svg">
<rect width="271" height="120" rx="6" fill="white"/>
<path d="M26.1051 53H29.9148L37.1591 38.6051V35.5455H24.9119V38.5625H33.3409V38.6818L26.1051 53ZM45.8288 53.2386C49.7152 53.2386 52.3572 50.7074 52.3487 47.179C52.3572 43.8381 50.022 41.4347 46.8771 41.4347C45.343 41.4347 44.022 42.0739 43.4084 42.9347H43.3061L43.7578 38.5625H51.3857V35.5455H40.7152L39.8885 44.75L43.1697 45.3381C43.7067 44.6136 44.7464 44.1619 45.7777 44.1619C47.5334 44.1705 48.7947 45.4403 48.7947 47.2727C48.7947 49.0881 47.5589 50.3409 45.8288 50.3409C44.3629 50.3409 43.1783 49.4205 43.093 48.0653H39.5135C39.5817 51.0824 42.2152 53.2386 45.8288 53.2386Z" fill="#4094F7"/>
<path d="M31.2188 89H32.6903L28.4347 83.2926L32.5511 78.8182H31.0795L27.0028 83.233H26.4659V78.8182H25.233V89H26.4659V84.3267H27.7188L31.2188 89ZM34.3198 91.8636C35.3787 91.8636 36.1245 91.3018 36.5669 90.1136L39.8184 81.3835L38.5357 81.3636L36.4277 87.4489H36.3482L34.2402 81.3636H32.9675L35.7914 89.0398L35.5726 89.6364C35.1451 90.7997 34.6181 90.9091 33.763 90.6903L33.4647 91.7244C33.584 91.7841 33.9221 91.8636 34.3198 91.8636ZM41.3707 91.8636H42.544V87.8267H42.6435C42.902 88.2443 43.3991 89.1591 44.8707 89.1591C46.7798 89.1591 48.1122 87.6278 48.1122 85.2017C48.1122 82.7955 46.7798 81.2642 44.8509 81.2642C43.3594 81.2642 42.902 82.179 42.6435 82.5767H42.5043V81.3636H41.3707V91.8636ZM42.5241 85.1818C42.5241 83.4716 43.2798 82.3182 44.7116 82.3182C46.2031 82.3182 46.9389 83.571 46.9389 85.1818C46.9389 86.8125 46.1832 88.1051 44.7116 88.1051C43.2997 88.1051 42.5241 86.9119 42.5241 85.1818ZM51.0753 84.1278V81.3636H49.902V89H53.1037C54.8935 89 55.8679 87.9062 55.8679 86.5341C55.8679 85.142 54.8935 84.1278 53.1037 84.1278H51.0753ZM51.0753 85.2216H53.1037C54.0334 85.2216 54.6946 85.7884 54.6946 86.5938C54.6946 87.3643 54.0334 87.9062 53.1037 87.9062H51.0753V85.2216ZM60.8556 89.1591C62.4068 89.1591 63.5403 88.3835 63.8983 87.2301L62.7647 86.9119C62.4664 87.7074 61.7754 88.1051 60.8556 88.1051C59.4785 88.1051 58.5289 87.2152 58.4743 85.5795H64.0176V85.0824C64.0176 82.2386 62.3272 81.2642 60.7363 81.2642C58.6681 81.2642 57.296 82.8949 57.296 85.2415C57.296 87.5881 58.6483 89.1591 60.8556 89.1591ZM58.4743 84.5653C58.5538 83.3771 59.394 82.3182 60.7363 82.3182C62.0091 82.3182 62.8244 83.2727 62.8244 84.5653H58.4743ZM65.8024 91.8636H66.9757V87.8267H67.0751C67.3336 88.2443 67.8308 89.1591 69.3024 89.1591C71.2115 89.1591 72.5439 87.6278 72.5439 85.2017C72.5439 82.7955 71.2115 81.2642 69.2825 81.2642C67.791 81.2642 67.3336 82.179 67.0751 82.5767H66.9359V81.3636H65.8024V91.8636ZM66.9558 85.1818C66.9558 83.4716 67.7115 82.3182 69.1433 82.3182C70.6348 82.3182 71.3706 83.571 71.3706 85.1818C71.3706 86.8125 70.6149 88.1051 69.1433 88.1051C67.7314 88.1051 66.9558 86.9119 66.9558 85.1818ZM75.5069 84.1278V81.3636H74.3336V89H77.5353C79.3251 89 80.2995 87.9062 80.2995 86.5341C80.2995 85.142 79.3251 84.1278 77.5353 84.1278H75.5069ZM81.5126 89H82.6859V81.3636H81.5126V89ZM75.5069 85.2216H77.5353C78.465 85.2216 79.1262 85.7884 79.1262 86.5938C79.1262 87.3643 78.465 87.9062 77.5353 87.9062H75.5069V85.2216Z" fill="#6E8BB7"/>
<rect x="175" y="24" width="72" height="72" rx="6" fill="#4094F7" fill-opacity="0.15"/>
<g clip-path="url(#clip0_88_4938)">
<path d="M220.227 52.0134C219.96 51.2267 219.213 50.6667 218.333 50.6667H203.667C202.787 50.6667 202.053 51.2267 201.773 52.0134L199.147 59.5734C199.053 59.8534 199 60.1467 199 60.4534V70C199 71.1067 199.893 72 201 72C202.107 72 203 71.1067 203 70V69.3334H219V70C219 71.0934 219.893 72 221 72C222.093 72 223 71.1067 223 70V60.4534C223 60.16 222.947 59.8534 222.853 59.5734L220.227 52.0134ZM203.667 65.3334C202.56 65.3334 201.667 64.44 201.667 63.3334C201.667 62.2267 202.56 61.3334 203.667 61.3334C204.773 61.3334 205.667 62.2267 205.667 63.3334C205.667 64.44 204.773 65.3334 203.667 65.3334ZM218.333 65.3334C217.227 65.3334 216.333 64.44 216.333 63.3334C216.333 62.2267 217.227 61.3334 218.333 61.3334C219.44 61.3334 220.333 62.2267 220.333 63.3334C220.333 64.44 219.44 65.3334 218.333 65.3334ZM201.667 58.6667L203.36 53.5734C203.547 53.04 204.053 52.6667 204.627 52.6667H217.373C217.947 52.6667 218.453 53.04 218.64 53.5734L220.333 58.6667H201.667Z" fill="#4094F7"/>
</g>
<defs>
<clipPath id="clip0_88_4938">
<rect width="32" height="32" fill="white" transform="translate(195 44)"/>
</clipPath>
</defs>
</svg>
