<svg width="846" height="492" viewBox="0 0 846 492" fill="none" xmlns="http://www.w3.org/2000/svg">
<g clip-path="url(#clip0_88_4962)">
<rect width="846" height="492" rx="6" fill="white"/>
<g filter="url(#filter0_i_88_4962)">
<rect width="846" height="72" fill="white"/>
<path d="M21.2912 43H29.8565V41.0121H23.6626V37.4389H29.3643V35.451H23.6626V31.897H29.8054V29.9091H21.2912V43ZM31.4833 43H34.2127L37.0188 39.0369H37.5302V43H39.8441V39.0369H40.3555L43.1488 43H45.8782L42.2731 37.9311L45.8462 33.1818H43.1744L40.381 37.1385H39.8441V33.1818H37.5302V37.1385H36.9805L34.1871 33.1818H31.5153L35.1076 37.9311L31.4833 43ZM51.5863 43.1918C53.8746 43.1918 55.4471 42.0732 55.8562 40.3665L53.6957 40.1236C53.3825 40.9545 52.6154 41.3892 51.6183 41.3892C50.1225 41.3892 49.1317 40.4048 49.1126 38.7237H55.9521V38.0142C55.9521 34.5689 53.881 33.054 51.4648 33.054C48.6523 33.054 46.8178 35.1186 46.8178 38.1484C46.8178 41.2294 48.6268 43.1918 51.5863 43.1918ZM49.119 37.1641C49.1893 35.9112 50.1161 34.8565 51.4968 34.8565C52.8263 34.8565 53.7212 35.8281 53.734 37.1641H49.119ZM63.5602 40.3089L60.7221 33.1818H57.9096V43H60.1404V36.3842L62.7548 43H64.372L67.0758 36.3139V43H69.2875V33.1818H66.475L63.5602 40.3089ZM75.9672 43.1918C78.2555 43.1918 79.8279 42.0732 80.237 40.3665L78.0765 40.1236C77.7633 40.9545 76.9963 41.3892 75.9991 41.3892C74.5034 41.3892 73.5126 40.4048 73.4934 38.7237H80.3329V38.0142C80.3329 34.5689 78.2619 33.054 75.8457 33.054C73.0332 33.054 71.1987 35.1186 71.1987 38.1484C71.1987 41.2294 73.0076 43.1918 75.9672 43.1918ZM73.4998 37.1641C73.5701 35.9112 74.497 34.8565 75.8777 34.8565C77.2072 34.8565 78.1021 35.8281 78.1149 37.1641H73.4998ZM86.5732 43.1918C89.0405 43.1918 90.6129 41.728 90.7791 39.6442H88.5675C88.3693 40.6989 87.6087 41.3061 86.5923 41.3061C85.1477 41.3061 84.2145 40.098 84.2145 38.0909C84.2145 36.1094 85.1669 34.9205 86.5923 34.9205C87.7045 34.9205 88.3885 35.6364 88.5675 36.5824H90.7791C90.6193 34.4538 88.9574 33.054 86.5604 33.054C83.6839 33.054 81.8686 35.1314 81.8686 38.1293C81.8686 41.1016 83.6392 43.1918 86.5732 43.1918ZM98.4831 43H100.65V33.1818H96.3865C93.9831 33.1818 92.4938 34.4155 92.5002 36.3011C92.4938 37.5412 93.1713 38.4808 94.3411 38.9602L92.1422 43H94.4178L96.4313 39.3054H98.4831V43ZM98.4831 37.6179H96.3098C95.2935 37.6179 94.731 37.0874 94.7374 36.3523C94.731 35.6172 95.3255 35.0611 96.3865 35.0611H98.4831V37.6179ZM111.181 33.1818H108.956V37.9759C108.394 38.1165 107.838 38.1932 107.231 38.1932C105.863 38.1932 105.192 37.7074 105.192 36.4418V33.169H102.98V36.4418C102.98 38.9474 104.61 40.0916 107.231 40.0916C107.806 40.0916 108.407 40.0149 108.956 39.8871V43H111.181V33.1818ZM115.74 33.1818H113.509V43H115.74V39.0305H119.543V43H121.768V33.1818H119.543V37.1321H115.74V33.1818ZM126.934 43.1982C128.475 43.1982 129.395 42.4759 129.817 41.6513H129.894V43H132.118V36.429C132.118 33.8338 130.002 33.054 128.129 33.054C126.065 33.054 124.48 33.9744 123.968 35.7642L126.129 36.071C126.359 35.3999 127.011 34.8246 128.142 34.8246C129.216 34.8246 129.804 35.3743 129.804 36.3395V36.3778C129.804 37.0426 129.107 37.0746 127.375 37.2599C125.47 37.4645 123.649 38.0334 123.649 40.245C123.649 42.1754 125.061 43.1982 126.934 43.1982ZM127.535 41.4979C126.57 41.4979 125.879 41.0568 125.879 40.2067C125.879 39.3182 126.653 38.9474 127.688 38.8004C128.296 38.7173 129.51 38.5639 129.811 38.321V39.478C129.811 40.571 128.928 41.4979 127.535 41.4979ZM140.249 43H142.416V33.1818H138.152C135.749 33.1818 134.259 34.4155 134.266 36.3011C134.259 37.5412 134.937 38.4808 136.107 38.9602L133.908 43H136.183L138.197 39.3054H140.249V43ZM140.249 37.6179H138.075C137.059 37.6179 136.497 37.0874 136.503 36.3523C136.497 35.6172 137.091 35.0611 138.152 35.0611H140.249V37.6179ZM153.493 43.1918C155.96 43.1918 157.533 41.728 157.699 39.6442H155.487C155.289 40.6989 154.529 41.3061 153.512 41.3061C152.068 41.3061 151.134 40.098 151.134 38.0909C151.134 36.1094 152.087 34.9205 153.512 34.9205C154.624 34.9205 155.308 35.6364 155.487 36.5824H157.699C157.539 34.4538 155.877 33.054 153.48 33.054C150.604 33.054 148.789 35.1314 148.789 38.1293C148.789 41.1016 150.559 43.1918 153.493 43.1918ZM158.904 35.0803H162.081V43H164.318V35.0803H167.495V33.1818H158.904V35.0803ZM171.758 43.1982C173.299 43.1982 174.219 42.4759 174.641 41.6513H174.718V43H176.942V36.429C176.942 33.8338 174.827 33.054 172.954 33.054C170.889 33.054 169.304 33.9744 168.792 35.7642L170.953 36.071C171.183 35.3999 171.835 34.8246 172.966 34.8246C174.04 34.8246 174.628 35.3743 174.628 36.3395V36.3778C174.628 37.0426 173.932 37.0746 172.199 37.2599C170.295 37.4645 168.473 38.0334 168.473 40.245C168.473 42.1754 169.885 43.1982 171.758 43.1982ZM172.359 41.4979C171.394 41.4979 170.704 41.0568 170.704 40.2067C170.704 39.3182 171.477 38.9474 172.513 38.8004C173.12 38.7173 174.334 38.5639 174.635 38.321V39.478C174.635 40.571 173.753 41.4979 172.359 41.4979ZM178.17 35.0803H181.346V43H183.584V35.0803H186.76V33.1818H178.17V35.0803ZM190.834 39.8679V33.1818H188.603V43H190.987L194.906 36.3075V43H197.143V33.1818H194.765L190.834 39.8679ZM203.802 43.1918C206.269 43.1918 207.841 41.728 208.008 39.6442H205.796C205.598 40.6989 204.837 41.3061 203.821 41.3061C202.376 41.3061 201.443 40.098 201.443 38.0909C201.443 36.1094 202.395 34.9205 203.821 34.9205C204.933 34.9205 205.617 35.6364 205.796 36.5824H208.008C207.848 34.4538 206.186 33.054 203.789 33.054C200.912 33.054 199.097 35.1314 199.097 38.1293C199.097 41.1016 200.868 43.1918 203.802 43.1918ZM209.213 35.0803H212.389V43H214.627V35.0803H217.803V33.1818H209.213V35.0803ZM221.877 39.8679V33.1818H219.646V43H222.03L225.949 36.3075V43H228.186V33.1818H225.808L221.877 39.8679ZM230.562 43H232.876V39.299H234.007L236.698 43H239.498L235.823 38.0014L239.46 33.1818H236.673L233.72 37.1449H232.876V33.1818H230.562V43ZM243.635 43.1982C245.176 43.1982 246.096 42.4759 246.518 41.6513H246.595V43H248.819V36.429C248.819 33.8338 246.703 33.054 244.831 33.054C242.766 33.054 241.181 33.9744 240.669 35.7642L242.83 36.071C243.06 35.3999 243.712 34.8246 244.843 34.8246C245.917 34.8246 246.505 35.3743 246.505 36.3395V36.3778C246.505 37.0426 245.809 37.0746 244.076 37.2599C242.172 37.4645 240.35 38.0334 240.35 40.245C240.35 42.1754 241.762 43.1982 243.635 43.1982ZM244.236 41.4979C243.271 41.4979 242.581 41.0568 242.581 40.2067C242.581 39.3182 243.354 38.9474 244.39 38.8004C244.997 38.7173 246.211 38.5639 246.512 38.321V39.478C246.512 40.571 245.63 41.4979 244.236 41.4979Z" fill="#5B6871"/>
<rect x="666.5" y="16.5" width="159" height="39" rx="7.5" fill="white"/>
<rect x="666.5" y="16.5" width="159" height="39" rx="7.5" stroke="#E5E9EB"/>
<path d="M683.233 30.8182V41H684.426L689.974 33.0057H690.074V41H691.307V30.8182H690.114L684.545 38.8324H684.446V30.8182H683.233ZM694.231 33.3636H693.058V41H694.231V37.7983H696.19C696.399 39.8416 697.726 41.1591 699.621 41.1591C701.689 41.1591 703.081 39.5881 703.081 37.2216C703.081 34.8352 701.689 33.2642 699.621 33.2642C697.706 33.2642 696.369 34.6115 696.185 36.7045H694.231V33.3636ZM699.621 40.1051C698.05 40.1051 697.334 38.7528 697.334 37.2216C697.334 35.6903 698.05 34.3182 699.621 34.3182C701.192 34.3182 701.907 35.6903 701.907 37.2216C701.907 38.7528 701.192 40.1051 699.621 40.1051ZM706.163 33.3636H704.99V41H706.163V37.7386H709.822V41H710.996V33.3636H709.822V36.6449H706.163V33.3636ZM714.312 36.1278V33.3636H713.138V41H716.34C718.13 41 719.104 39.9062 719.104 38.5341C719.104 37.142 718.13 36.1278 716.34 36.1278H714.312ZM714.312 37.2216H716.34C717.27 37.2216 717.931 37.7884 717.931 38.5938C717.931 39.3643 717.27 39.9062 716.34 39.9062H714.312V37.2216Z" fill="#303940"/>
<path d="M800.767 33.7417L804 36.975L807.233 33.7417C807.558 33.4167 808.083 33.4167 808.408 33.7417C808.733 34.0667 808.733 34.5917 808.408 34.9167L804.583 38.7417C804.258 39.0667 803.733 39.0667 803.408 38.7417L799.583 34.9167C799.258 34.5917 799.258 34.0667 799.583 33.7417C799.908 33.425 800.442 33.4167 800.767 33.7417Z" fill="#0E73F6"/>
</g>
<g filter="url(#filter1_i_88_4962)">
<rect width="64" height="49.1667" transform="translate(20 92)" fill="white"/>
<path d="M39.6335 111.402H38.4006L35.8551 113.092V114.345L38.3409 112.694H38.4006V121.583H39.6335V111.402ZM45.8828 121.723C48.13 121.723 49.4226 119.818 49.4226 116.492C49.4226 113.191 48.1101 111.262 45.8828 111.262C43.6555 111.262 42.343 113.191 42.343 116.492C42.343 119.818 43.6357 121.723 45.8828 121.723ZM45.8828 120.629C44.4013 120.629 43.5362 119.142 43.5362 116.492C43.5362 113.848 44.4112 112.336 45.8828 112.336C47.3544 112.336 48.2294 113.848 48.2294 116.492C48.2294 119.142 47.3643 120.629 45.8828 120.629ZM54.6328 121.723C56.88 121.723 58.1726 119.818 58.1726 116.492C58.1726 113.191 56.8601 111.262 54.6328 111.262C52.4055 111.262 51.093 113.191 51.093 116.492C51.093 119.818 52.3857 121.723 54.6328 121.723ZM54.6328 120.629C53.1513 120.629 52.2862 119.142 52.2862 116.492C52.2862 113.848 53.1612 112.336 54.6328 112.336C56.1044 112.336 56.9794 113.848 56.9794 116.492C56.9794 119.142 56.1143 120.629 54.6328 120.629ZM63.3828 121.723C65.63 121.723 66.9226 119.818 66.9226 116.492C66.9226 113.191 65.6101 111.262 63.3828 111.262C61.1555 111.262 59.843 113.191 59.843 116.492C59.843 119.818 61.1357 121.723 63.3828 121.723ZM63.3828 120.629C61.9013 120.629 61.0362 119.142 61.0362 116.492C61.0362 113.848 61.9112 112.336 63.3828 112.336C64.8544 112.336 65.7294 113.848 65.7294 116.492C65.7294 119.142 64.8643 120.629 63.3828 120.629Z" fill="#6E8BB7"/>
</g>
<g filter="url(#filter2_i_88_4962)">
<rect x="84" y="92" width="742" height="49.1667" fill="white"/>
</g>
<g filter="url(#filter3_i_88_4962)">
<rect width="64" height="49.1667" transform="translate(20 141.167)" fill="white"/>
<path d="M45.3153 170.889C47.3487 170.889 48.7656 169.701 48.7756 168.045C48.7656 166.758 47.9055 165.664 46.8068 165.46V165.401C47.7614 165.152 48.3878 164.217 48.3977 163.134C48.3878 161.582 47.0852 160.429 45.3153 160.429C43.5256 160.429 42.223 161.582 42.233 163.134C42.223 164.217 42.8494 165.152 43.8239 165.401V165.46C42.7053 165.664 41.8452 166.758 41.8551 168.045C41.8452 169.701 43.2621 170.889 45.3153 170.889ZM45.3153 169.795C43.9183 169.795 43.0582 169.08 43.0682 167.986C43.0582 166.837 44.0078 166.017 45.3153 166.017C46.603 166.017 47.5526 166.837 47.5625 167.986C47.5526 169.08 46.6925 169.795 45.3153 169.795ZM45.3153 164.963C44.2017 164.963 43.4162 164.267 43.4261 163.213C43.4162 162.179 44.1719 161.503 45.3153 161.503C46.4389 161.503 47.1946 162.179 47.2045 163.213C47.1946 164.267 46.4091 164.963 45.3153 164.963ZM54.002 170.889C56.2491 170.889 57.5417 168.985 57.5417 165.659C57.5417 162.358 56.2292 160.429 54.002 160.429C51.7747 160.429 50.4622 162.358 50.4622 165.659C50.4622 168.985 51.7548 170.889 54.002 170.889ZM54.002 169.795C52.5204 169.795 51.6554 168.309 51.6554 165.659C51.6554 163.014 52.5304 161.503 54.002 161.503C55.4735 161.503 56.3485 163.014 56.3485 165.659C56.3485 168.309 55.4835 169.795 54.002 169.795ZM62.752 170.889C64.9991 170.889 66.2917 168.985 66.2917 165.659C66.2917 162.358 64.9792 160.429 62.752 160.429C60.5247 160.429 59.2122 162.358 59.2122 165.659C59.2122 168.985 60.5048 170.889 62.752 170.889ZM62.752 169.795C61.2704 169.795 60.4054 168.309 60.4054 165.659C60.4054 163.014 61.2804 161.503 62.752 161.503C64.2235 161.503 65.0985 163.014 65.0985 165.659C65.0985 168.309 64.2335 169.795 62.752 169.795Z" fill="#6E8BB7"/>
</g>
<g filter="url(#filter4_i_88_4962)">
<rect x="84" y="141.167" width="742" height="49.1667" fill="white"/>
</g>
<g filter="url(#filter5_i_88_4962)">
<rect width="64" height="49.1667" transform="translate(20 190.333)" fill="white"/>
<path d="M45.4347 220.056C47.4929 220.081 48.8352 218.53 48.8352 216.635C48.8352 214.667 47.3786 213.255 45.6335 213.255C44.5845 213.255 43.6847 213.767 43.1278 214.607H43.0483C43.0533 212.126 44.0178 210.689 45.5938 210.689C46.6676 210.689 47.3139 211.366 47.5426 212.28H48.7557C48.5071 210.699 47.304 209.596 45.5938 209.596C43.3018 209.596 41.8949 211.624 41.8949 215.224C41.8949 218.987 43.7642 220.036 45.4347 220.056ZM45.4347 218.962C44.157 218.962 43.2223 217.873 43.2273 216.655C43.2322 215.437 44.2116 214.349 45.4744 214.349C46.7223 214.349 47.642 215.373 47.642 216.635C47.642 217.928 46.6825 218.962 45.4347 218.962ZM54.1113 220.056C56.3585 220.056 57.6511 218.152 57.6511 214.826C57.6511 211.525 56.3386 209.596 54.1113 209.596C51.8841 209.596 50.5716 211.525 50.5716 214.826C50.5716 218.152 51.8642 220.056 54.1113 220.056ZM54.1113 218.962C52.6298 218.962 51.7647 217.476 51.7647 214.826C51.7647 212.181 52.6397 210.67 54.1113 210.67C55.5829 210.67 56.4579 212.181 56.4579 214.826C56.4579 217.476 55.5929 218.962 54.1113 218.962ZM62.8613 220.056C65.1085 220.056 66.4011 218.152 66.4011 214.826C66.4011 211.525 65.0886 209.596 62.8613 209.596C60.6341 209.596 59.3216 211.525 59.3216 214.826C59.3216 218.152 60.6142 220.056 62.8613 220.056ZM62.8613 218.962C61.3798 218.962 60.5147 217.476 60.5147 214.826C60.5147 212.181 61.3897 210.67 62.8613 210.67C64.3329 210.67 65.2079 212.181 65.2079 214.826C65.2079 217.476 64.3429 218.962 62.8613 218.962Z" fill="#6E8BB7"/>
</g>
<g filter="url(#filter6_i_88_4962)">
<rect x="84" y="190.333" width="742" height="49.1667" fill="white"/>
</g>
<g filter="url(#filter7_i_88_4962)">
<rect width="64" height="49.1667" transform="translate(20 239.5)" fill="white"/>
<path d="M41.8153 266.995H46.608V269.083H47.7812V266.995H49.1733V265.902H47.7812V258.902H46.2898L41.8153 265.981V266.995ZM46.608 265.902H43.1477V265.822L46.5284 260.473H46.608V265.902ZM54.3574 269.223C56.6046 269.223 57.8972 267.318 57.8972 263.992C57.8972 260.691 56.5847 258.762 54.3574 258.762C52.1301 258.762 50.8176 260.691 50.8176 263.992C50.8176 267.318 52.1103 269.223 54.3574 269.223ZM54.3574 268.129C52.8759 268.129 52.0108 266.642 52.0108 263.992C52.0108 261.348 52.8858 259.836 54.3574 259.836C55.829 259.836 56.704 261.348 56.704 263.992C56.704 266.642 55.839 268.129 54.3574 268.129ZM63.1074 269.223C65.3546 269.223 66.6472 267.318 66.6472 263.992C66.6472 260.691 65.3347 258.762 63.1074 258.762C60.8801 258.762 59.5676 260.691 59.5676 263.992C59.5676 267.318 60.8603 269.223 63.1074 269.223ZM63.1074 268.129C61.6259 268.129 60.7608 266.642 60.7608 263.992C60.7608 261.348 61.6358 259.836 63.1074 259.836C64.579 259.836 65.454 261.348 65.454 263.992C65.454 266.642 64.589 268.129 63.1074 268.129Z" fill="#6E8BB7"/>
</g>
<g filter="url(#filter8_i_88_4962)">
<rect x="84" y="239.5" width="742" height="49.1667" fill="white"/>
</g>
<g filter="url(#filter9_i_88_4962)">
<rect width="64" height="49.1667" transform="translate(20 288.667)" fill="white"/>
<path d="M43.054 318.25H49.4773V317.156H44.7443V317.077L47.0312 314.631C48.7812 312.756 49.2983 311.881 49.2983 310.753C49.2983 309.182 48.0256 307.929 46.2358 307.929C44.451 307.929 43.0938 309.142 43.0938 310.932H44.267C44.267 309.773 45.0178 309.003 46.196 309.003C47.2997 309.003 48.1449 309.679 48.1449 310.753C48.1449 311.692 47.593 312.388 46.4148 313.676L43.054 317.355V318.25ZM54.8516 318.389C57.0987 318.389 58.3913 316.485 58.3913 313.159C58.3913 309.858 57.0788 307.929 54.8516 307.929C52.6243 307.929 51.3118 309.858 51.3118 313.159C51.3118 316.485 52.6044 318.389 54.8516 318.389ZM54.8516 317.295C53.37 317.295 52.505 315.809 52.505 313.159C52.505 310.514 53.38 309.003 54.8516 309.003C56.3232 309.003 57.1982 310.514 57.1982 313.159C57.1982 315.809 56.3331 317.295 54.8516 317.295ZM63.6016 318.389C65.8487 318.389 67.1413 316.485 67.1413 313.159C67.1413 309.858 65.8288 307.929 63.6016 307.929C61.3743 307.929 60.0618 309.858 60.0618 313.159C60.0618 316.485 61.3544 318.389 63.6016 318.389ZM63.6016 317.295C62.12 317.295 61.255 315.809 61.255 313.159C61.255 310.514 62.13 309.003 63.6016 309.003C65.0732 309.003 65.9482 310.514 65.9482 313.159C65.9482 315.809 65.0831 317.295 63.6016 317.295Z" fill="#6E8BB7"/>
</g>
<g filter="url(#filter10_i_88_4962)">
<rect x="84" y="288.667" width="742" height="49.1667" fill="white"/>
</g>
<g filter="url(#filter11_i_88_4962)">
<rect width="64" height="49.1667" transform="translate(20 337.833)" fill="white"/>
<path d="M63.375 367.556C65.6222 367.556 66.9148 365.652 66.9148 362.326C66.9148 359.025 65.6023 357.096 63.375 357.096C61.1477 357.096 59.8352 359.025 59.8352 362.326C59.8352 365.652 61.1278 367.556 63.375 367.556ZM63.375 366.462C61.8935 366.462 61.0284 364.976 61.0284 362.326C61.0284 359.681 61.9034 358.17 63.375 358.17C64.8466 358.17 65.7216 359.681 65.7216 362.326C65.7216 364.976 64.8565 366.462 63.375 366.462Z" fill="#6E8BB7"/>
</g>
<g filter="url(#filter12_i_88_4962)">
<rect x="84" y="337.833" width="742" height="49.1667" fill="white"/>
</g>
<g filter="url(#filter13_i_88_4962)">
<rect width="64" height="32" transform="translate(20 388)" fill="white"/>
</g>
<rect width="106" height="32" transform="translate(84 388)" fill="white"/>
<path d="M99.8494 398.818H92.2528V409H93.4858V399.912H98.6165V409H99.8494V398.818ZM105.28 409.159C107.348 409.159 108.74 407.588 108.74 405.222C108.74 402.835 107.348 401.264 105.28 401.264C103.211 401.264 101.819 402.835 101.819 405.222C101.819 407.588 103.211 409.159 105.28 409.159ZM105.28 408.105C103.709 408.105 102.993 406.753 102.993 405.222C102.993 403.69 103.709 402.318 105.28 402.318C106.851 402.318 107.567 403.69 107.567 405.222C107.567 406.753 106.851 408.105 105.28 408.105ZM111.704 401.364H110.531V409H111.704V405.739H115.363V409H116.537V401.364H115.363V404.645H111.704V401.364ZM121.881 409.159C123.432 409.159 124.566 408.384 124.924 407.23L123.79 406.912C123.492 407.707 122.801 408.105 121.881 408.105C120.504 408.105 119.554 407.215 119.5 405.58H125.043V405.082C125.043 402.239 123.353 401.264 121.762 401.264C119.694 401.264 118.321 402.895 118.321 405.241C118.321 407.588 119.674 409.159 121.881 409.159ZM119.5 404.565C119.579 403.377 120.419 402.318 121.762 402.318C123.034 402.318 123.85 403.273 123.85 404.565H119.5ZM126.012 411.188H127.186V409H132.833V411.188H134.007V407.906H132.833V401.364H127.981L127.723 404.386C127.539 406.524 127.265 407.26 126.649 407.906H126.012V411.188ZM127.981 407.906C128.518 407.2 128.712 405.982 128.876 404.386L129.075 402.457H131.66V407.906H127.981ZM138.766 409.159C140.317 409.159 141.45 408.384 141.808 407.23L140.675 406.912C140.377 407.707 139.686 408.105 138.766 408.105C137.389 408.105 136.439 407.215 136.384 405.58H141.928V405.082C141.928 402.239 140.237 401.264 138.646 401.264C136.578 401.264 135.206 402.895 135.206 405.241C135.206 407.588 136.558 409.159 138.766 409.159ZM136.384 404.565C136.464 403.377 137.304 402.318 138.646 402.318C139.919 402.318 140.735 403.273 140.735 404.565H136.384ZM143.036 409H143.434C145.124 409 145.612 407.688 145.721 405.182L145.84 402.457H148.644V409H149.818V401.364H144.727L144.588 404.744C144.488 407.31 144.23 407.906 143.315 407.906H143.036V409ZM153.144 404.128V401.364H151.97V409H155.172C156.962 409 157.936 407.906 157.936 406.534C157.936 405.142 156.962 404.128 155.172 404.128H153.144ZM153.144 405.222H155.172C156.102 405.222 156.763 405.788 156.763 406.594C156.763 407.364 156.102 407.906 155.172 407.906H153.144V405.222ZM160.896 401.364H159.722V409H160.896V405.739H164.555V409H165.728V401.364H164.555V404.645H160.896V401.364ZM169.044 407.27V401.364H167.871V409H169.243L172.902 403.094V409H174.075V401.364H172.723L169.044 407.27ZM176.224 409H177.398V405.778H178.452L180.957 409H182.469L179.346 405.043L182.429 401.364H180.917L178.173 404.685H177.398V401.364H176.224V409Z" fill="#6E8BB7"/>
<g filter="url(#filter14_i_88_4962)">
<rect width="106" height="32" transform="translate(190 388)" fill="white"/>
<path d="M215.233 409H218.912C221.318 409 222.312 407.827 222.312 406.295C222.312 404.685 221.199 403.81 220.264 403.75V403.651C221.139 403.412 221.915 402.835 221.915 401.523C221.915 400.031 220.92 398.818 218.793 398.818H215.233V409ZM216.466 407.906V404.366H218.972C220.304 404.366 221.139 405.261 221.139 406.295C221.139 407.19 220.523 407.906 218.912 407.906H216.466ZM216.466 403.293V399.912H218.793C220.145 399.912 220.741 400.628 220.741 401.523C220.741 402.597 219.866 403.293 218.753 403.293H216.466ZM223.742 402.457H226.267V409H227.441V402.457H229.946V401.364H223.742V402.457ZM234.364 409.159C236.432 409.159 237.824 407.588 237.824 405.222C237.824 402.835 236.432 401.264 234.364 401.264C232.295 401.264 230.903 402.835 230.903 405.222C230.903 407.588 232.295 409.159 234.364 409.159ZM234.364 408.105C232.793 408.105 232.077 406.753 232.077 405.222C232.077 403.69 232.793 402.318 234.364 402.318C235.935 402.318 236.651 403.69 236.651 405.222C236.651 406.753 235.935 408.105 234.364 408.105ZM239.615 411.864H240.788V407.827H240.888C241.146 408.244 241.643 409.159 243.115 409.159C245.024 409.159 246.356 407.628 246.356 405.202C246.356 402.795 245.024 401.264 243.095 401.264C241.604 401.264 241.146 402.179 240.888 402.577H240.748V401.364H239.615V411.864ZM240.768 405.182C240.768 403.472 241.524 402.318 242.956 402.318C244.447 402.318 245.183 403.571 245.183 405.182C245.183 406.812 244.427 408.105 242.956 408.105C241.544 408.105 240.768 406.912 240.768 405.182ZM249.319 401.364H248.146V409H249.319V405.739H252.979V409H254.152V401.364H252.979V404.645H249.319V401.364ZM257.468 407.27V401.364H256.295V409H257.667L261.326 403.094V409H262.499V401.364H261.147L257.468 407.27ZM264.648 409H265.821V405.778H266.875L269.381 409H270.892L267.77 405.043L270.853 401.364H269.341L266.597 404.685H265.821V401.364H264.648V409Z" fill="#6E8BB7"/>
</g>
<g filter="url(#filter15_i_88_4962)">
<rect width="106" height="32" transform="translate(296 388)" fill="white"/>
<path d="M336.426 402C336.048 399.912 334.378 398.679 332.33 398.679C329.724 398.679 327.835 400.688 327.835 403.909C327.835 407.131 329.724 409.139 332.33 409.139C334.378 409.139 336.048 407.906 336.426 405.818H335.193C334.895 407.23 333.682 407.986 332.33 407.986C330.48 407.986 329.028 406.554 329.028 403.909C329.028 401.264 330.48 399.832 332.33 399.832C333.682 399.832 334.895 400.588 335.193 402H336.426ZM338.259 411.864H339.433V407.827H339.532C339.791 408.244 340.288 409.159 341.759 409.159C343.669 409.159 345.001 407.628 345.001 405.202C345.001 402.795 343.669 401.264 341.74 401.264C340.248 401.264 339.791 402.179 339.532 402.577H339.393V401.364H338.259V411.864ZM339.413 405.182C339.413 403.472 340.169 402.318 341.6 402.318C343.092 402.318 343.828 403.571 343.828 405.182C343.828 406.812 343.072 408.105 341.6 408.105C340.188 408.105 339.413 406.912 339.413 405.182ZM349.992 409.159C351.544 409.159 352.677 408.384 353.035 407.23L351.901 406.912C351.603 407.707 350.912 408.105 349.992 408.105C348.615 408.105 347.666 407.215 347.611 405.58H353.154V405.082C353.154 402.239 351.464 401.264 349.873 401.264C347.805 401.264 346.433 402.895 346.433 405.241C346.433 407.588 347.785 409.159 349.992 409.159ZM347.611 404.565C347.691 403.377 348.531 402.318 349.873 402.318C351.146 402.318 351.961 403.273 351.961 404.565H347.611ZM354.124 411.188H355.297V409H360.945V411.188H362.118V407.906H360.945V401.364H356.093L355.834 404.386C355.65 406.524 355.377 407.26 354.76 407.906H354.124V411.188ZM356.093 407.906C356.629 407.2 356.823 405.982 356.987 404.386L357.186 402.457H359.771V407.906H356.093ZM365.923 409.179C367.255 409.179 367.951 408.463 368.19 407.966H368.249V409H369.423V403.969C369.423 401.543 367.573 401.264 366.599 401.264C365.445 401.264 364.133 401.662 363.536 403.054L364.65 403.452C364.908 402.895 365.52 402.298 366.638 402.298C367.717 402.298 368.249 402.87 368.249 403.849V403.889C368.249 404.456 367.673 404.406 366.281 404.585C364.864 404.769 363.317 405.082 363.317 406.832C363.317 408.324 364.471 409.179 365.923 409.179ZM366.102 408.125C365.167 408.125 364.491 407.707 364.491 406.892C364.491 405.997 365.306 405.719 366.221 405.599C366.718 405.54 368.05 405.401 368.249 405.162V406.236C368.249 407.19 367.494 408.125 366.102 408.125Z" fill="#6E8BB7"/>
</g>
<g filter="url(#filter16_i_88_4962)">
<rect width="106" height="32" transform="translate(402 388)" fill="white"/>
<path d="M427.832 398.818V402.219C427.832 404.466 429.105 405.301 431.213 405.301C432.446 405.301 433.207 405.142 434.037 404.893V409H435.27V398.818H434.037V403.775C433.167 404.028 432.242 404.188 431.213 404.188C429.901 404.188 429.065 403.73 429.065 402.219V398.818H427.832ZM440.783 409.159C442.335 409.159 443.468 408.384 443.826 407.23L442.692 406.912C442.394 407.707 441.703 408.105 440.783 408.105C439.406 408.105 438.457 407.215 438.402 405.58H443.945V405.082C443.945 402.239 442.255 401.264 440.664 401.264C438.596 401.264 437.224 402.895 437.224 405.241C437.224 407.588 438.576 409.159 440.783 409.159ZM438.402 404.565C438.482 403.377 439.322 402.318 440.664 402.318C441.937 402.318 442.752 403.273 442.752 404.565H438.402ZM445.019 402.457H447.545V409H448.718V402.457H451.224V401.364H445.019V402.457ZM452.935 409H456.535C458.086 409 459.02 408.125 459.02 406.952C459.02 405.754 458.111 405.107 457.27 404.983C458.131 404.804 458.742 404.322 458.742 403.392C458.742 402.174 457.698 401.364 456.057 401.364H452.935V409ZM454.049 407.926V405.58H456.535C457.34 405.58 457.827 406.062 457.827 406.852C457.827 407.518 457.34 407.926 456.535 407.926H454.049ZM454.049 404.565V402.438H456.057C456.997 402.438 457.569 402.83 457.569 403.472C457.569 404.153 456.997 404.565 456.057 404.565H454.049ZM463.998 409.159C465.549 409.159 466.683 408.384 467.041 407.23L465.907 406.912C465.609 407.707 464.918 408.105 463.998 408.105C462.621 408.105 461.672 407.215 461.617 405.58H467.16V405.082C467.16 402.239 465.47 401.264 463.879 401.264C461.811 401.264 460.439 402.895 460.439 405.241C460.439 407.588 461.791 409.159 463.998 409.159ZM461.617 404.565C461.696 403.377 462.537 402.318 463.879 402.318C465.152 402.318 465.967 403.273 465.967 404.565H461.617ZM468.945 411.864H470.118V407.827H470.218C470.476 408.244 470.973 409.159 472.445 409.159C474.354 409.159 475.686 407.628 475.686 405.202C475.686 402.795 474.354 401.264 472.425 401.264C470.934 401.264 470.476 402.179 470.218 402.577H470.078V401.364H468.945V411.864ZM470.098 405.182C470.098 403.472 470.854 402.318 472.286 402.318C473.777 402.318 474.513 403.571 474.513 405.182C474.513 406.812 473.757 408.105 472.286 408.105C470.874 408.105 470.098 406.912 470.098 405.182ZM482.189 401.364H477.476V409H478.65V402.457H482.189V401.364Z" fill="#6E8BB7"/>
</g>
<g filter="url(#filter17_i_88_4962)">
<rect width="106" height="32" transform="translate(508 388)" fill="white"/>
<path d="M540.349 398.818H532.753V409H533.986V399.912H539.116V409H540.349V398.818ZM547.271 409H548.385V401.364H545.243C543.597 401.364 542.598 402.224 542.598 403.631C542.598 404.68 543.125 405.425 544.045 405.739L542.18 409H543.453L545.223 405.898H547.271V409ZM547.271 404.804H545.104C544.273 404.804 543.771 404.362 543.771 403.631C543.771 402.89 544.328 402.438 545.243 402.438H547.271V404.804ZM549.5 402.457H552.025V409H553.199V402.457H555.704V401.364H549.5V402.457ZM558.589 401.364H557.416V409H558.589V405.739H562.248V409H563.421V401.364H562.248V404.645H558.589V401.364ZM566.737 407.27V401.364H565.564V409H566.936L570.595 403.094V409H571.769V401.364H570.416L566.737 407.27ZM579.923 401.364H578.75V407.906H575.091V401.364H573.918V409H579.824V411.466H580.997V407.906H579.923V401.364ZM585.051 409.179C586.384 409.179 587.08 408.463 587.319 407.966H587.378V409H588.551V403.969C588.551 401.543 586.702 401.264 585.728 401.264C584.574 401.264 583.262 401.662 582.665 403.054L583.779 403.452C584.037 402.895 584.649 402.298 585.767 402.298C586.846 402.298 587.378 402.87 587.378 403.849V403.889C587.378 404.456 586.801 404.406 585.409 404.585C583.993 404.769 582.446 405.082 582.446 406.832C582.446 408.324 583.6 409.179 585.051 409.179ZM585.23 408.125C584.296 408.125 583.62 407.707 583.62 406.892C583.62 405.997 584.435 405.719 585.35 405.599C585.847 405.54 587.179 405.401 587.378 405.162V406.236C587.378 407.19 586.623 408.125 585.23 408.125Z" fill="#6E8BB7"/>
</g>
<g filter="url(#filter18_i_88_4962)">
<rect width="106" height="32" transform="translate(614 388)" fill="white"/>
<path d="M647.426 402C647.048 399.912 645.378 398.679 643.33 398.679C640.724 398.679 638.835 400.688 638.835 403.909C638.835 407.131 640.724 409.139 643.33 409.139C645.378 409.139 647.048 407.906 647.426 405.818H646.193C645.895 407.23 644.682 407.986 643.33 407.986C641.48 407.986 640.028 406.554 640.028 403.909C640.028 401.264 641.48 399.832 643.33 399.832C644.682 399.832 645.895 400.588 646.193 402H647.426ZM650.015 411.864C651.074 411.864 651.82 411.302 652.262 410.114L655.514 401.384L654.231 401.364L652.123 407.449H652.044L649.936 401.364H648.663L651.487 409.04L651.268 409.636C650.84 410.8 650.313 410.909 649.458 410.69L649.16 411.724C649.279 411.784 649.617 411.864 650.015 411.864ZM662.734 398.5C662.361 398.813 661.804 398.813 661.023 398.808C660.77 398.808 660.491 398.808 660.188 398.818C657.862 398.878 656.708 400.648 656.708 404.048V404.864C656.708 407.688 658.08 409.159 660.129 409.159C662.172 409.159 663.529 407.678 663.529 405.281C663.529 402.875 662.152 401.602 660.367 401.602C659.318 401.602 658.339 402.04 657.822 402.994H657.722C657.881 401.026 658.617 399.972 660.208 399.912C661.62 399.852 662.634 399.892 663.33 399.216L662.734 398.5ZM660.129 408.105C658.737 408.105 657.881 406.991 657.881 405.281C657.906 403.611 658.746 402.656 660.109 402.656C661.506 402.656 662.356 403.611 662.356 405.281C662.356 407.001 661.511 408.105 660.129 408.105ZM670.991 398.5C670.619 398.813 670.062 398.813 669.281 398.808C669.028 398.808 668.749 398.808 668.446 398.818C666.119 398.878 664.966 400.648 664.966 404.048V404.864C664.966 407.688 666.338 409.159 668.386 409.159C670.43 409.159 671.787 407.678 671.787 405.281C671.787 402.875 670.41 401.602 668.625 401.602C667.576 401.602 666.597 402.04 666.08 402.994H665.98C666.139 401.026 666.875 399.972 668.466 399.912C669.878 399.852 670.892 399.892 671.588 399.216L670.991 398.5ZM668.386 408.105C666.994 408.105 666.139 406.991 666.139 405.281C666.164 403.611 667.004 402.656 668.366 402.656C669.763 402.656 670.614 403.611 670.614 405.281C670.614 407.001 669.768 408.105 668.386 408.105ZM676.684 409.159C678.752 409.159 680.144 407.588 680.144 405.222C680.144 402.835 678.752 401.264 676.684 401.264C674.616 401.264 673.224 402.835 673.224 405.222C673.224 407.588 674.616 409.159 676.684 409.159ZM676.684 408.105C675.113 408.105 674.397 406.753 674.397 405.222C674.397 403.69 675.113 402.318 676.684 402.318C678.255 402.318 678.971 403.69 678.971 405.222C678.971 406.753 678.255 408.105 676.684 408.105ZM680.937 402.457H683.463V409H684.636V402.457H687.142V401.364H680.937V402.457ZM690.704 409.179C692.036 409.179 692.732 408.463 692.971 407.966H693.031V409H694.204V403.969C694.204 401.543 692.354 401.264 691.38 401.264C690.227 401.264 688.914 401.662 688.317 403.054L689.431 403.452C689.69 402.895 690.301 402.298 691.42 402.298C692.499 402.298 693.031 402.87 693.031 403.849V403.889C693.031 404.456 692.454 404.406 691.062 404.585C689.645 404.769 688.099 405.082 688.099 406.832C688.099 408.324 689.252 409.179 690.704 409.179ZM690.883 408.125C689.948 408.125 689.272 407.707 689.272 406.892C689.272 405.997 690.087 405.719 691.002 405.599C691.499 405.54 692.832 405.401 693.031 405.162V406.236C693.031 407.19 692.275 408.125 690.883 408.125Z" fill="#6E8BB7"/>
</g>
<g filter="url(#filter19_i_88_4962)">
<rect width="106" height="32" transform="translate(720 388)" fill="white"/>
<path d="M725.233 409H728.912C731.318 409 732.312 407.827 732.312 406.295C732.312 404.685 731.199 403.81 730.264 403.75V403.651C731.139 403.412 731.915 402.835 731.915 401.523C731.915 400.031 730.92 398.818 728.793 398.818H725.233V409ZM726.466 407.906V404.366H728.972C730.304 404.366 731.139 405.261 731.139 406.295C731.139 407.19 730.523 407.906 728.912 407.906H726.466ZM726.466 403.293V399.912H728.793C730.145 399.912 730.741 400.628 730.741 401.523C730.741 402.597 729.866 403.293 728.753 403.293H726.466ZM737.282 409.159C739.35 409.159 740.742 407.588 740.742 405.222C740.742 402.835 739.35 401.264 737.282 401.264C735.213 401.264 733.821 402.835 733.821 405.222C733.821 407.588 735.213 409.159 737.282 409.159ZM737.282 408.105C735.711 408.105 734.995 406.753 734.995 405.222C734.995 403.69 735.711 402.318 737.282 402.318C738.853 402.318 739.569 403.69 739.569 405.222C739.569 406.753 738.853 408.105 737.282 408.105ZM745.635 409.159C747.325 409.159 748.439 408.125 748.638 406.773H747.465C747.246 407.608 746.55 408.105 745.635 408.105C744.243 408.105 743.348 406.952 743.348 405.182C743.348 403.452 744.263 402.318 745.635 402.318C746.669 402.318 747.286 402.955 747.465 403.651H748.638C748.439 402.219 747.226 401.264 745.615 401.264C743.547 401.264 742.175 402.895 742.175 405.222C742.175 407.509 743.487 409.159 745.635 409.159ZM750.353 409H751.526V405.778H752.58L755.086 409H756.597L753.475 405.043L756.558 401.364H755.046L752.302 404.685H751.526V401.364H750.353V409ZM757.873 411.864H759.046V407.827H759.145C759.404 408.244 759.901 409.159 761.373 409.159C763.282 409.159 764.614 407.628 764.614 405.202C764.614 402.795 763.282 401.264 761.353 401.264C759.861 401.264 759.404 402.179 759.145 402.577H759.006V401.364H757.873V411.864ZM759.026 405.182C759.026 403.472 759.782 402.318 761.214 402.318C762.705 402.318 763.441 403.571 763.441 405.182C763.441 406.812 762.685 408.105 761.214 408.105C759.802 408.105 759.026 406.912 759.026 405.182ZM769.606 409.159C771.157 409.159 772.29 408.384 772.648 407.23L771.515 406.912C771.216 407.707 770.525 408.105 769.606 408.105C768.229 408.105 767.279 407.215 767.224 405.58H772.768V405.082C772.768 402.239 771.077 401.264 769.486 401.264C767.418 401.264 766.046 402.895 766.046 405.241C766.046 407.588 767.398 409.159 769.606 409.159ZM767.224 404.565C767.304 403.377 768.144 402.318 769.486 402.318C770.759 402.318 771.574 403.273 771.574 404.565H767.224ZM777.655 409.159C779.345 409.159 780.459 408.125 780.657 406.773H779.484C779.265 407.608 778.569 408.105 777.655 408.105C776.263 408.105 775.368 406.952 775.368 405.182C775.368 403.452 776.282 402.318 777.655 402.318C778.689 402.318 779.305 402.955 779.484 403.651H780.657C780.459 402.219 779.246 401.264 777.635 401.264C775.567 401.264 774.194 402.895 774.194 405.222C774.194 407.509 775.507 409.159 777.655 409.159ZM785.475 409.159C787.165 409.159 788.279 408.125 788.478 406.773H787.305C787.086 407.608 786.39 408.105 785.475 408.105C784.083 408.105 783.188 406.952 783.188 405.182C783.188 403.452 784.103 402.318 785.475 402.318C786.509 402.318 787.126 402.955 787.305 403.651H788.478C788.279 402.219 787.066 401.264 785.455 401.264C783.387 401.264 782.015 402.895 782.015 405.222C782.015 407.509 783.327 409.159 785.475 409.159ZM793.395 409.159C794.946 409.159 796.079 408.384 796.437 407.23L795.304 406.912C795.006 407.707 794.314 408.105 793.395 408.105C792.018 408.105 791.068 407.215 791.013 405.58H796.557V405.082C796.557 402.239 794.866 401.264 793.275 401.264C791.207 401.264 789.835 402.895 789.835 405.241C789.835 407.588 791.187 409.159 793.395 409.159ZM791.013 404.565C791.093 403.377 791.933 402.318 793.275 402.318C794.548 402.318 795.363 403.273 795.363 404.565H791.013ZM799.515 401.364H798.341V409H799.515V405.739H803.174V409H804.347V401.364H803.174V404.645H799.515V401.364ZM807.663 404.128V401.364H806.49V409H809.692C811.481 409 812.456 407.906 812.456 406.534C812.456 405.142 811.481 404.128 809.692 404.128H807.663ZM807.663 405.222H809.692C810.621 405.222 811.282 405.788 811.282 406.594C811.282 407.364 810.621 407.906 809.692 407.906H807.663V405.222ZM817.444 409.159C818.995 409.159 820.128 408.384 820.486 407.23L819.353 406.912C819.054 407.707 818.363 408.105 817.444 408.105C816.066 408.105 815.117 407.215 815.062 405.58H820.605V405.082C820.605 402.239 818.915 401.264 817.324 401.264C815.256 401.264 813.884 402.895 813.884 405.241C813.884 407.588 815.236 409.159 817.444 409.159ZM815.062 404.565C815.142 403.377 815.982 402.318 817.324 402.318C818.597 402.318 819.412 403.273 819.412 404.565H815.062Z" fill="#6E8BB7"/>
</g>
<g filter="url(#filter20_i_88_4962)">
<rect width="846" height="56" transform="translate(0 436)" fill="white"/>
<g clip-path="url(#clip1_88_4962)">
<rect width="312" height="56" transform="translate(267 436)" fill="white"/>
<g filter="url(#filter21_i_88_4962)">
<rect width="96" height="56" transform="translate(267 436)" fill="white"/>
<path d="M286.119 469H287.655V464.56H292.731V469H294.272V458.818H292.731V463.243H287.655V458.818H286.119V469ZM299.681 469.154C301.347 469.154 302.525 468.334 302.863 467.091L301.456 466.837C301.188 467.558 300.541 467.926 299.696 467.926C298.423 467.926 297.568 467.101 297.528 465.629H302.957V465.102C302.957 462.343 301.307 461.264 299.577 461.264C297.449 461.264 296.047 462.885 296.047 465.232C296.047 467.603 297.429 469.154 299.681 469.154ZM297.533 464.516C297.593 463.432 298.379 462.492 299.587 462.492C300.74 462.492 301.496 463.347 301.501 464.516H297.533ZM303.861 471.202H305.333V469H310.657V471.202H312.109V467.712H310.936V461.364H305.745L305.507 464.212C305.347 466.136 305.114 467.141 304.482 467.712H303.861V471.202ZM306.073 467.712C306.58 467.001 306.769 465.818 306.919 464.212L307.078 462.636H309.484V467.712H306.073ZM316.853 469.154C318.518 469.154 319.697 468.334 320.035 467.091L318.628 466.837C318.359 467.558 317.713 467.926 316.868 467.926C315.595 467.926 314.74 467.101 314.7 465.629H320.129V465.102C320.129 462.343 318.479 461.264 316.749 461.264C314.621 461.264 313.219 462.885 313.219 465.232C313.219 467.603 314.601 469.154 316.853 469.154ZM314.705 464.516C314.765 463.432 315.55 462.492 316.759 462.492C317.912 462.492 318.668 463.347 318.673 464.516H314.705ZM321.177 469H321.654C323.32 469 323.931 467.767 324.051 465.241L324.17 462.646H326.666V469H328.122V461.364H322.793L322.659 464.744C322.564 467.101 322.296 467.712 321.445 467.712H321.172L321.177 469ZM331.561 463.989V461.364H330.105V469H333.441C335.31 469 336.354 467.916 336.354 466.479C336.354 465.013 335.31 463.989 333.441 463.989H331.561ZM331.561 465.271H333.441C334.296 465.271 334.907 465.788 334.907 466.524C334.907 467.22 334.296 467.717 333.441 467.717H331.561V465.271ZM342.575 469H343.972V461.364H340.745C338.985 461.364 337.911 462.273 337.911 463.71C337.911 464.714 338.438 465.455 339.348 465.798L337.563 469H339.085L340.75 466.012H342.575V469ZM342.575 464.809H340.646C339.835 464.809 339.363 464.381 339.368 463.73C339.363 463.074 339.875 462.631 340.745 462.631H342.575V464.809Z" fill="#4094F7"/>
</g>
<path d="M401.119 458.818V469H402.58V461.627H402.675L405.678 468.985H406.891L409.893 461.632H409.988V469H411.45V458.818H409.585L406.344 466.733H406.224L402.983 458.818H401.119ZM416.855 469.154C418.52 469.154 419.699 468.334 420.037 467.091L418.63 466.837C418.361 467.558 417.715 467.926 416.87 467.926C415.597 467.926 414.742 467.101 414.702 465.629H420.131V465.102C420.131 462.343 418.481 461.264 416.751 461.264C414.623 461.264 413.221 462.885 413.221 465.232C413.221 467.603 414.603 469.154 416.855 469.154ZM414.707 464.516C414.767 463.432 415.552 462.492 416.76 462.492C417.914 462.492 418.67 463.347 418.675 464.516H414.707ZM424.997 469.154C426.802 469.154 427.97 468.07 428.134 466.584H426.688C426.499 467.409 425.857 467.896 425.007 467.896C423.749 467.896 422.939 466.847 422.939 465.182C422.939 463.546 423.764 462.517 425.007 462.517C425.952 462.517 426.528 463.114 426.688 463.83H428.134C427.975 462.288 426.717 461.264 424.982 461.264C422.83 461.264 421.438 462.885 421.438 465.217C421.438 467.518 422.78 469.154 424.997 469.154ZM434.278 469H435.675V461.364H432.448C430.688 461.364 429.615 462.273 429.615 463.71C429.615 464.714 430.142 465.455 431.051 465.798L429.267 469H430.788L432.453 466.012H434.278V469ZM434.278 464.809H432.349C431.539 464.809 431.066 464.381 431.071 463.73C431.066 463.074 431.578 462.631 432.448 462.631H434.278V464.809ZM443.878 461.364H442.431V467.717H439.105V461.364H437.649V469H443.535V471.461H445.007V467.782H443.878V461.364Z" fill="#6E8BB7"/>
<path d="M525.967 458.818H519.619V469H521.155V460.141H525.967V458.818ZM529.689 469.154C531.841 469.154 533.248 467.578 533.248 465.217C533.248 462.84 531.841 461.264 529.689 461.264C527.536 461.264 526.129 462.84 526.129 465.217C526.129 467.578 527.536 469.154 529.689 469.154ZM529.694 467.906C528.287 467.906 527.63 466.678 527.63 465.212C527.63 463.75 528.287 462.507 529.694 462.507C531.091 462.507 531.747 463.75 531.747 465.212C531.747 466.678 531.091 467.906 529.694 467.906ZM534.162 471.202H535.633V469H540.958V471.202H542.41V467.712H541.236V461.364H536.046L535.807 464.212C535.648 466.136 535.415 467.141 534.783 467.712H534.162V471.202ZM536.374 467.712C536.881 467.001 537.07 465.818 537.219 464.212L537.378 462.636H539.785V467.712H536.374Z" fill="#6E8BB7"/>
</g>
</g>
</g>
<path d="M84 359C84 359 109.249 302.981 135.901 302.981C162.553 302.981 161.852 331.682 179.737 331.682C197.622 331.682 201.83 248 231.989 248C262.148 248 254.433 276.355 273.019 276.355C291.605 276.355 295.814 193.364 329.83 193.364C363.847 193.364 358.586 248 374.718 248C390.849 248 384.888 219.645 402.773 219.645C426.97 219.645 438.542 301.252 465.896 301.252C493.249 301.252 480.274 248 508.679 248C537.085 248 527.967 331.682 566.542 331.682C601.611 331.682 599.507 193.364 634.926 193.364C665.436 193.364 653.162 248 680.866 248C708.57 248 693.14 137 724 137" stroke="#0E73F6" stroke-width="2"/>
<path d="M135.901 303C109.249 303 84 359.025 84 359.025V386H724V137C693.14 137 708.57 248.012 680.866 248.012C653.162 248.012 665.436 193.371 634.926 193.371C599.507 193.371 601.611 331.704 566.542 331.704C527.967 331.704 537.085 248.012 508.679 248.012C480.274 248.012 493.249 301.271 465.896 301.271C438.542 301.271 426.97 219.654 402.773 219.654C384.888 219.654 390.849 248.012 374.718 248.012C358.586 248.012 363.847 193.371 329.83 193.371C295.814 193.371 291.605 276.371 273.019 276.371C254.433 276.371 262.148 248.012 231.989 248.012C201.83 248.012 197.622 331.704 179.737 331.704C161.852 331.704 162.553 303 135.901 303Z" fill="url(#paint0_linear_88_4962)"/>
<rect x="723" y="92" width="2" height="294" fill="#0E73F6"/>
<g filter="url(#filter22_d_88_4962)">
<circle cx="724" cy="137" r="8" fill="white"/>
<circle cx="724" cy="137" r="6" stroke="#0E73F6" stroke-width="4"/>
</g>
<g filter="url(#filter23_d_88_4962)">
<rect x="748" y="117" width="71" height="40" rx="8" fill="white"/>
<path d="M772.989 131.205C770.545 131.182 768.949 132.938 768.949 135.142C768.955 137.364 770.562 138.966 772.58 138.966C773.812 138.966 774.869 138.364 775.466 137.386H775.557C775.551 140.062 774.545 141.625 772.841 141.625C771.727 141.625 771.011 140.943 770.784 139.949H769.051C769.307 141.83 770.761 143.159 772.841 143.159C775.545 143.159 777.239 140.835 777.239 136.761C777.233 132.511 775.062 131.222 772.989 131.205ZM772.994 132.682C774.341 132.682 775.335 133.824 775.335 135.102C775.341 136.398 774.29 137.534 772.96 137.534C771.625 137.534 770.659 136.466 770.653 135.119C770.653 133.767 771.659 132.682 772.994 132.682ZM783.342 143.193C786.03 143.193 787.604 141 787.604 137.188C787.604 133.403 786.007 131.205 783.342 131.205C780.672 131.205 779.081 133.398 779.075 137.188C779.075 140.994 780.649 143.188 783.342 143.193ZM783.342 141.676C781.768 141.676 780.82 140.097 780.82 137.188C780.825 134.29 781.774 132.693 783.342 132.693C784.905 132.693 785.859 134.29 785.859 137.188C785.859 140.097 784.911 141.676 783.342 141.676ZM789.619 143H797.278V141.494H792.04V141.409L794.352 138.989C796.483 136.835 797.091 135.807 797.091 134.506C797.091 132.636 795.568 131.205 793.375 131.205C791.199 131.205 789.608 132.614 789.608 134.739H791.284C791.278 133.489 792.085 132.67 793.341 132.67C794.523 132.67 795.42 133.398 795.42 134.557C795.42 135.585 794.807 136.324 793.557 137.648L789.619 141.727V143Z" fill="#0E73F6"/>
</g>
<defs>
<filter id="filter0_i_88_4962" x="0" y="0" width="846" height="72" filterUnits="userSpaceOnUse" color-interpolation-filters="sRGB">
<feFlood flood-opacity="0" result="BackgroundImageFix"/>
<feBlend mode="normal" in="SourceGraphic" in2="BackgroundImageFix" result="shape"/>
<feColorMatrix in="SourceAlpha" type="matrix" values="0 0 0 0 0 0 0 0 0 0 0 0 0 0 0 0 0 0 127 0" result="hardAlpha"/>
<feOffset dy="-1"/>
<feComposite in2="hardAlpha" operator="arithmetic" k2="-1" k3="1"/>
<feColorMatrix type="matrix" values="0 0 0 0 0 0 0 0 0 0 0 0 0 0 0 0 0 0 0.06 0"/>
<feBlend mode="normal" in2="shape" result="effect1_innerShadow_88_4962"/>
</filter>
<filter id="filter1_i_88_4962" x="20" y="92" width="64" height="49.1666" filterUnits="userSpaceOnUse" color-interpolation-filters="sRGB">
<feFlood flood-opacity="0" result="BackgroundImageFix"/>
<feBlend mode="normal" in="SourceGraphic" in2="BackgroundImageFix" result="shape"/>
<feColorMatrix in="SourceAlpha" type="matrix" values="0 0 0 0 0 0 0 0 0 0 0 0 0 0 0 0 0 0 127 0" result="hardAlpha"/>
<feOffset dx="-1" dy="-1"/>
<feComposite in2="hardAlpha" operator="arithmetic" k2="-1" k3="1"/>
<feColorMatrix type="matrix" values="0 0 0 0 0 0 0 0 0 0 0 0 0 0 0 0 0 0 0.06 0"/>
<feBlend mode="normal" in2="shape" result="effect1_innerShadow_88_4962"/>
</filter>
<filter id="filter2_i_88_4962" x="84" y="92" width="742" height="49.1666" filterUnits="userSpaceOnUse" color-interpolation-filters="sRGB">
<feFlood flood-opacity="0" result="BackgroundImageFix"/>
<feBlend mode="normal" in="SourceGraphic" in2="BackgroundImageFix" result="shape"/>
<feColorMatrix in="SourceAlpha" type="matrix" values="0 0 0 0 0 0 0 0 0 0 0 0 0 0 0 0 0 0 127 0" result="hardAlpha"/>
<feOffset dy="-1"/>
<feComposite in2="hardAlpha" operator="arithmetic" k2="-1" k3="1"/>
<feColorMatrix type="matrix" values="0 0 0 0 0 0 0 0 0 0 0 0 0 0 0 0 0 0 0.06 0"/>
<feBlend mode="normal" in2="shape" result="effect1_innerShadow_88_4962"/>
</filter>
<filter id="filter3_i_88_4962" x="20" y="141.167" width="64" height="49.1666" filterUnits="userSpaceOnUse" color-interpolation-filters="sRGB">
<feFlood flood-opacity="0" result="BackgroundImageFix"/>
<feBlend mode="normal" in="SourceGraphic" in2="BackgroundImageFix" result="shape"/>
<feColorMatrix in="SourceAlpha" type="matrix" values="0 0 0 0 0 0 0 0 0 0 0 0 0 0 0 0 0 0 127 0" result="hardAlpha"/>
<feOffset dx="-1" dy="-1"/>
<feComposite in2="hardAlpha" operator="arithmetic" k2="-1" k3="1"/>
<feColorMatrix type="matrix" values="0 0 0 0 0 0 0 0 0 0 0 0 0 0 0 0 0 0 0.06 0"/>
<feBlend mode="normal" in2="shape" result="effect1_innerShadow_88_4962"/>
</filter>
<filter id="filter4_i_88_4962" x="84" y="141.167" width="742" height="49.1666" filterUnits="userSpaceOnUse" color-interpolation-filters="sRGB">
<feFlood flood-opacity="0" result="BackgroundImageFix"/>
<feBlend mode="normal" in="SourceGraphic" in2="BackgroundImageFix" result="shape"/>
<feColorMatrix in="SourceAlpha" type="matrix" values="0 0 0 0 0 0 0 0 0 0 0 0 0 0 0 0 0 0 127 0" result="hardAlpha"/>
<feOffset dy="-1"/>
<feComposite in2="hardAlpha" operator="arithmetic" k2="-1" k3="1"/>
<feColorMatrix type="matrix" values="0 0 0 0 0 0 0 0 0 0 0 0 0 0 0 0 0 0 0.06 0"/>
<feBlend mode="normal" in2="shape" result="effect1_innerShadow_88_4962"/>
</filter>
<filter id="filter5_i_88_4962" x="20" y="190.333" width="64" height="49.1666" filterUnits="userSpaceOnUse" color-interpolation-filters="sRGB">
<feFlood flood-opacity="0" result="BackgroundImageFix"/>
<feBlend mode="normal" in="SourceGraphic" in2="BackgroundImageFix" result="shape"/>
<feColorMatrix in="SourceAlpha" type="matrix" values="0 0 0 0 0 0 0 0 0 0 0 0 0 0 0 0 0 0 127 0" result="hardAlpha"/>
<feOffset dx="-1" dy="-1"/>
<feComposite in2="hardAlpha" operator="arithmetic" k2="-1" k3="1"/>
<feColorMatrix type="matrix" values="0 0 0 0 0 0 0 0 0 0 0 0 0 0 0 0 0 0 0.06 0"/>
<feBlend mode="normal" in2="shape" result="effect1_innerShadow_88_4962"/>
</filter>
<filter id="filter6_i_88_4962" x="84" y="190.333" width="742" height="49.1666" filterUnits="userSpaceOnUse" color-interpolation-filters="sRGB">
<feFlood flood-opacity="0" result="BackgroundImageFix"/>
<feBlend mode="normal" in="SourceGraphic" in2="BackgroundImageFix" result="shape"/>
<feColorMatrix in="SourceAlpha" type="matrix" values="0 0 0 0 0 0 0 0 0 0 0 0 0 0 0 0 0 0 127 0" result="hardAlpha"/>
<feOffset dy="-1"/>
<feComposite in2="hardAlpha" operator="arithmetic" k2="-1" k3="1"/>
<feColorMatrix type="matrix" values="0 0 0 0 0 0 0 0 0 0 0 0 0 0 0 0 0 0 0.06 0"/>
<feBlend mode="normal" in2="shape" result="effect1_innerShadow_88_4962"/>
</filter>
<filter id="filter7_i_88_4962" x="20" y="239.5" width="64" height="49.1666" filterUnits="userSpaceOnUse" color-interpolation-filters="sRGB">
<feFlood flood-opacity="0" result="BackgroundImageFix"/>
<feBlend mode="normal" in="SourceGraphic" in2="BackgroundImageFix" result="shape"/>
<feColorMatrix in="SourceAlpha" type="matrix" values="0 0 0 0 0 0 0 0 0 0 0 0 0 0 0 0 0 0 127 0" result="hardAlpha"/>
<feOffset dx="-1" dy="-1"/>
<feComposite in2="hardAlpha" operator="arithmetic" k2="-1" k3="1"/>
<feColorMatrix type="matrix" values="0 0 0 0 0 0 0 0 0 0 0 0 0 0 0 0 0 0 0.06 0"/>
<feBlend mode="normal" in2="shape" result="effect1_innerShadow_88_4962"/>
</filter>
<filter id="filter8_i_88_4962" x="84" y="239.5" width="742" height="49.1666" filterUnits="userSpaceOnUse" color-interpolation-filters="sRGB">
<feFlood flood-opacity="0" result="BackgroundImageFix"/>
<feBlend mode="normal" in="SourceGraphic" in2="BackgroundImageFix" result="shape"/>
<feColorMatrix in="SourceAlpha" type="matrix" values="0 0 0 0 0 0 0 0 0 0 0 0 0 0 0 0 0 0 127 0" result="hardAlpha"/>
<feOffset dy="-1"/>
<feComposite in2="hardAlpha" operator="arithmetic" k2="-1" k3="1"/>
<feColorMatrix type="matrix" values="0 0 0 0 0 0 0 0 0 0 0 0 0 0 0 0 0 0 0.06 0"/>
<feBlend mode="normal" in2="shape" result="effect1_innerShadow_88_4962"/>
</filter>
<filter id="filter9_i_88_4962" x="20" y="288.667" width="64" height="49.1666" filterUnits="userSpaceOnUse" color-interpolation-filters="sRGB">
<feFlood flood-opacity="0" result="BackgroundImageFix"/>
<feBlend mode="normal" in="SourceGraphic" in2="BackgroundImageFix" result="shape"/>
<feColorMatrix in="SourceAlpha" type="matrix" values="0 0 0 0 0 0 0 0 0 0 0 0 0 0 0 0 0 0 127 0" result="hardAlpha"/>
<feOffset dx="-1" dy="-1"/>
<feComposite in2="hardAlpha" operator="arithmetic" k2="-1" k3="1"/>
<feColorMatrix type="matrix" values="0 0 0 0 0 0 0 0 0 0 0 0 0 0 0 0 0 0 0.06 0"/>
<feBlend mode="normal" in2="shape" result="effect1_innerShadow_88_4962"/>
</filter>
<filter id="filter10_i_88_4962" x="84" y="288.667" width="742" height="49.1666" filterUnits="userSpaceOnUse" color-interpolation-filters="sRGB">
<feFlood flood-opacity="0" result="BackgroundImageFix"/>
<feBlend mode="normal" in="SourceGraphic" in2="BackgroundImageFix" result="shape"/>
<feColorMatrix in="SourceAlpha" type="matrix" values="0 0 0 0 0 0 0 0 0 0 0 0 0 0 0 0 0 0 127 0" result="hardAlpha"/>
<feOffset dy="-1"/>
<feComposite in2="hardAlpha" operator="arithmetic" k2="-1" k3="1"/>
<feColorMatrix type="matrix" values="0 0 0 0 0 0 0 0 0 0 0 0 0 0 0 0 0 0 0.06 0"/>
<feBlend mode="normal" in2="shape" result="effect1_innerShadow_88_4962"/>
</filter>
<filter id="filter11_i_88_4962" x="20" y="337.833" width="64" height="49.1666" filterUnits="userSpaceOnUse" color-interpolation-filters="sRGB">
<feFlood flood-opacity="0" result="BackgroundImageFix"/>
<feBlend mode="normal" in="SourceGraphic" in2="BackgroundImageFix" result="shape"/>
<feColorMatrix in="SourceAlpha" type="matrix" values="0 0 0 0 0 0 0 0 0 0 0 0 0 0 0 0 0 0 127 0" result="hardAlpha"/>
<feOffset dx="-1" dy="-1"/>
<feComposite in2="hardAlpha" operator="arithmetic" k2="-1" k3="1"/>
<feColorMatrix type="matrix" values="0 0 0 0 0 0 0 0 0 0 0 0 0 0 0 0 0 0 0.06 0"/>
<feBlend mode="normal" in2="shape" result="effect1_innerShadow_88_4962"/>
</filter>
<filter id="filter12_i_88_4962" x="84" y="337.833" width="742" height="49.1666" filterUnits="userSpaceOnUse" color-interpolation-filters="sRGB">
<feFlood flood-opacity="0" result="BackgroundImageFix"/>
<feBlend mode="normal" in="SourceGraphic" in2="BackgroundImageFix" result="shape"/>
<feColorMatrix in="SourceAlpha" type="matrix" values="0 0 0 0 0 0 0 0 0 0 0 0 0 0 0 0 0 0 127 0" result="hardAlpha"/>
<feOffset dy="-1"/>
<feComposite in2="hardAlpha" operator="arithmetic" k2="-1" k3="1"/>
<feColorMatrix type="matrix" values="0 0 0 0 0 0 0 0 0 0 0 0 0 0 0 0 0 0 0.06 0"/>
<feBlend mode="normal" in2="shape" result="effect1_innerShadow_88_4962"/>
</filter>
<filter id="filter13_i_88_4962" x="20" y="388" width="64" height="32" filterUnits="userSpaceOnUse" color-interpolation-filters="sRGB">
<feFlood flood-opacity="0" result="BackgroundImageFix"/>
<feBlend mode="normal" in="SourceGraphic" in2="BackgroundImageFix" result="shape"/>
<feColorMatrix in="SourceAlpha" type="matrix" values="0 0 0 0 0 0 0 0 0 0 0 0 0 0 0 0 0 0 127 0" result="hardAlpha"/>
<feOffset dx="-1"/>
<feComposite in2="hardAlpha" operator="arithmetic" k2="-1" k3="1"/>
<feColorMatrix type="matrix" values="0 0 0 0 0 0 0 0 0 0 0 0 0 0 0 0 0 0 0.06 0"/>
<feBlend mode="normal" in2="shape" result="effect1_innerShadow_88_4962"/>
</filter>
<filter id="filter14_i_88_4962" x="190" y="388" width="106" height="32" filterUnits="userSpaceOnUse" color-interpolation-filters="sRGB">
<feFlood flood-opacity="0" result="BackgroundImageFix"/>
<feBlend mode="normal" in="SourceGraphic" in2="BackgroundImageFix" result="shape"/>
<feColorMatrix in="SourceAlpha" type="matrix" values="0 0 0 0 0 0 0 0 0 0 0 0 0 0 0 0 0 0 127 0" result="hardAlpha"/>
<feOffset dx="1"/>
<feComposite in2="hardAlpha" operator="arithmetic" k2="-1" k3="1"/>
<feColorMatrix type="matrix" values="0 0 0 0 0 0 0 0 0 0 0 0 0 0 0 0 0 0 0.06 0"/>
<feBlend mode="normal" in2="shape" result="effect1_innerShadow_88_4962"/>
</filter>
<filter id="filter15_i_88_4962" x="296" y="388" width="106" height="32" filterUnits="userSpaceOnUse" color-interpolation-filters="sRGB">
<feFlood flood-opacity="0" result="BackgroundImageFix"/>
<feBlend mode="normal" in="SourceGraphic" in2="BackgroundImageFix" result="shape"/>
<feColorMatrix in="SourceAlpha" type="matrix" values="0 0 0 0 0 0 0 0 0 0 0 0 0 0 0 0 0 0 127 0" result="hardAlpha"/>
<feOffset dx="1"/>
<feComposite in2="hardAlpha" operator="arithmetic" k2="-1" k3="1"/>
<feColorMatrix type="matrix" values="0 0 0 0 0 0 0 0 0 0 0 0 0 0 0 0 0 0 0.06 0"/>
<feBlend mode="normal" in2="shape" result="effect1_innerShadow_88_4962"/>
</filter>
<filter id="filter16_i_88_4962" x="402" y="388" width="106" height="32" filterUnits="userSpaceOnUse" color-interpolation-filters="sRGB">
<feFlood flood-opacity="0" result="BackgroundImageFix"/>
<feBlend mode="normal" in="SourceGraphic" in2="BackgroundImageFix" result="shape"/>
<feColorMatrix in="SourceAlpha" type="matrix" values="0 0 0 0 0 0 0 0 0 0 0 0 0 0 0 0 0 0 127 0" result="hardAlpha"/>
<feOffset dx="1"/>
<feComposite in2="hardAlpha" operator="arithmetic" k2="-1" k3="1"/>
<feColorMatrix type="matrix" values="0 0 0 0 0 0 0 0 0 0 0 0 0 0 0 0 0 0 0.06 0"/>
<feBlend mode="normal" in2="shape" result="effect1_innerShadow_88_4962"/>
</filter>
<filter id="filter17_i_88_4962" x="508" y="388" width="106" height="32" filterUnits="userSpaceOnUse" color-interpolation-filters="sRGB">
<feFlood flood-opacity="0" result="BackgroundImageFix"/>
<feBlend mode="normal" in="SourceGraphic" in2="BackgroundImageFix" result="shape"/>
<feColorMatrix in="SourceAlpha" type="matrix" values="0 0 0 0 0 0 0 0 0 0 0 0 0 0 0 0 0 0 127 0" result="hardAlpha"/>
<feOffset dx="1"/>
<feComposite in2="hardAlpha" operator="arithmetic" k2="-1" k3="1"/>
<feColorMatrix type="matrix" values="0 0 0 0 0 0 0 0 0 0 0 0 0 0 0 0 0 0 0.06 0"/>
<feBlend mode="normal" in2="shape" result="effect1_innerShadow_88_4962"/>
</filter>
<filter id="filter18_i_88_4962" x="614" y="388" width="106" height="32" filterUnits="userSpaceOnUse" color-interpolation-filters="sRGB">
<feFlood flood-opacity="0" result="BackgroundImageFix"/>
<feBlend mode="normal" in="SourceGraphic" in2="BackgroundImageFix" result="shape"/>
<feColorMatrix in="SourceAlpha" type="matrix" values="0 0 0 0 0 0 0 0 0 0 0 0 0 0 0 0 0 0 127 0" result="hardAlpha"/>
<feOffset dx="1"/>
<feComposite in2="hardAlpha" operator="arithmetic" k2="-1" k3="1"/>
<feColorMatrix type="matrix" values="0 0 0 0 0 0 0 0 0 0 0 0 0 0 0 0 0 0 0.06 0"/>
<feBlend mode="normal" in2="shape" result="effect1_innerShadow_88_4962"/>
</filter>
<filter id="filter19_i_88_4962" x="720" y="388" width="106" height="32" filterUnits="userSpaceOnUse" color-interpolation-filters="sRGB">
<feFlood flood-opacity="0" result="BackgroundImageFix"/>
<feBlend mode="normal" in="SourceGraphic" in2="BackgroundImageFix" result="shape"/>
<feColorMatrix in="SourceAlpha" type="matrix" values="0 0 0 0 0 0 0 0 0 0 0 0 0 0 0 0 0 0 127 0" result="hardAlpha"/>
<feOffset dx="1"/>
<feComposite in2="hardAlpha" operator="arithmetic" k2="-1" k3="1"/>
<feColorMatrix type="matrix" values="0 0 0 0 0 0 0 0 0 0 0 0 0 0 0 0 0 0 0.06 0"/>
<feBlend mode="normal" in2="shape" result="effect1_innerShadow_88_4962"/>
</filter>
<filter id="filter20_i_88_4962" x="0" y="436" width="846" height="56" filterUnits="userSpaceOnUse" color-interpolation-filters="sRGB">
<feFlood flood-opacity="0" result="BackgroundImageFix"/>
<feBlend mode="normal" in="SourceGraphic" in2="BackgroundImageFix" result="shape"/>
<feColorMatrix in="SourceAlpha" type="matrix" values="0 0 0 0 0 0 0 0 0 0 0 0 0 0 0 0 0 0 127 0" result="hardAlpha"/>
<feOffset dy="1"/>
<feComposite in2="hardAlpha" operator="arithmetic" k2="-1" k3="1"/>
<feColorMatrix type="matrix" values="0 0 0 0 0 0 0 0 0 0 0 0 0 0 0 0 0 0 0.06 0"/>
<feBlend mode="normal" in2="shape" result="effect1_innerShadow_88_4962"/>
</filter>
<filter id="filter21_i_88_4962" x="267" y="436" width="96" height="56" filterUnits="userSpaceOnUse" color-interpolation-filters="sRGB">
<feFlood flood-opacity="0" result="BackgroundImageFix"/>
<feBlend mode="normal" in="SourceGraphic" in2="BackgroundImageFix" result="shape"/>
<feColorMatrix in="SourceAlpha" type="matrix" values="0 0 0 0 0 0 0 0 0 0 0 0 0 0 0 0 0 0 127 0" result="hardAlpha"/>
<feOffset dy="-4"/>
<feComposite in2="hardAlpha" operator="arithmetic" k2="-1" k3="1"/>
<feColorMatrix type="matrix" values="0 0 0 0 0.208813 0 0 0 0 0.575381 0 0 0 0 0.975 0 0 0 1 0"/>
<feBlend mode="normal" in2="shape" result="effect1_innerShadow_88_4962"/>
</filter>
<filter id="filter22_d_88_4962" x="692" y="113" width="64" height="64" filterUnits="userSpaceOnUse" color-interpolation-filters="sRGB">
<feFlood flood-opacity="0" result="BackgroundImageFix"/>
<feColorMatrix in="SourceAlpha" type="matrix" values="0 0 0 0 0 0 0 0 0 0 0 0 0 0 0 0 0 0 127 0" result="hardAlpha"/>
<feOffset dy="8"/>
<feGaussianBlur stdDeviation="12"/>
<feColorMatrix type="matrix" values="0 0 0 0 0.431195 0 0 0 0 0.547038 0 0 0 0 0.716667 0 0 0 0.2 0"/>
<feBlend mode="normal" in2="BackgroundImageFix" result="effect1_dropShadow_88_4962"/>
<feBlend mode="normal" in="SourceGraphic" in2="effect1_dropShadow_88_4962" result="shape"/>
</filter>
<filter id="filter23_d_88_4962" x="724" y="101" width="119" height="88" filterUnits="userSpaceOnUse" color-interpolation-filters="sRGB">
<feFlood flood-opacity="0" result="BackgroundImageFix"/>
<feColorMatrix in="SourceAlpha" type="matrix" values="0 0 0 0 0 0 0 0 0 0 0 0 0 0 0 0 0 0 127 0" result="hardAlpha"/>
<feOffset dy="8"/>
<feGaussianBlur stdDeviation="12"/>
<feColorMatrix type="matrix" values="0 0 0 0 0.431195 0 0 0 0 0.547038 0 0 0 0 0.716667 0 0 0 0.2 0"/>
<feBlend mode="normal" in2="BackgroundImageFix" result="effect1_dropShadow_88_4962"/>
<feBlend mode="normal" in="SourceGraphic" in2="effect1_dropShadow_88_4962" result="shape"/>
</filter>
<linearGradient id="paint0_linear_88_4962" x1="404" y1="137" x2="404" y2="386" gradientUnits="userSpaceOnUse">
<stop stop-color="#0E73F6" stop-opacity="0.5"/>
<stop offset="1" stop-color="#0E73F6" stop-opacity="0.1"/>
</linearGradient>
<clipPath id="clip0_88_4962">
<rect width="846" height="492" rx="6" fill="white"/>
</clipPath>
<clipPath id="clip1_88_4962">
<rect width="312" height="56" fill="white" transform="translate(267 436)"/>
</clipPath>
</defs>
</svg>
