<svg width="279" height="227" viewBox="0 0 279 227" fill="none" xmlns="http://www.w3.org/2000/svg">
<rect width="278.176" height="227" rx="6" fill="white"/>
<path d="M26.2644 31.9119H29.4661V41H30.6991V31.9119H33.9008V30.8182H26.2644V31.9119ZM37.6394 41.1591C39.7076 41.1591 41.0996 39.5881 41.0996 37.2216C41.0996 34.8352 39.7076 33.2642 37.6394 33.2642C35.5712 33.2642 34.1792 34.8352 34.1792 37.2216C34.1792 39.5881 35.5712 41.1591 37.6394 41.1591ZM37.6394 40.1051C36.0684 40.1051 35.3525 38.7528 35.3525 37.2216C35.3525 35.6903 36.0684 34.3182 37.6394 34.3182C39.2104 34.3182 39.9263 35.6903 39.9263 37.2216C39.9263 38.7528 39.2104 40.1051 37.6394 40.1051ZM46.2117 33.3636H44.581V31.5341H43.4077V33.3636H42.2543V34.358H43.4077V39.1307C43.4077 40.4631 44.4815 41.0994 45.4759 41.0994C45.9134 41.0994 46.1918 41.0199 46.3509 40.9602L46.1122 39.9062C46.0128 39.9261 45.8537 39.9659 45.5952 39.9659C45.0781 39.9659 44.581 39.8068 44.581 38.8125V34.358H46.2117V33.3636ZM50.2237 41.179C51.5561 41.179 52.2521 40.4631 52.4908 39.9659H52.5504V41H53.7237V35.9688C53.7237 33.5426 51.8743 33.2642 50.8999 33.2642C49.7465 33.2642 48.434 33.6619 47.8374 35.054L48.951 35.4517C49.2095 34.8949 49.821 34.2983 50.9396 34.2983C52.0185 34.2983 52.5504 34.87 52.5504 35.8494V35.8892C52.5504 36.456 51.9737 36.4062 50.5817 36.5852C49.1648 36.7692 47.6186 37.0824 47.6186 38.8324C47.6186 40.3239 48.772 41.179 50.2237 41.179ZM50.4027 40.125C49.4681 40.125 48.7919 39.7074 48.7919 38.892C48.7919 37.9972 49.6073 37.7188 50.522 37.5994C51.0192 37.5398 52.3516 37.4006 52.5504 37.1619V38.2358C52.5504 39.1903 51.7948 40.125 50.4027 40.125ZM57.0385 30.8182H55.8652V41H57.0385V30.8182ZM66.2273 41.1591C68.2955 41.1591 69.6875 39.5881 69.6875 37.2216C69.6875 34.8352 68.2955 33.2642 66.2273 33.2642C64.1591 33.2642 62.7671 34.8352 62.7671 37.2216C62.7671 39.5881 64.1591 41.1591 66.2273 41.1591ZM66.2273 40.1051C64.6563 40.1051 63.9404 38.7528 63.9404 37.2216C63.9404 35.6903 64.6563 34.3182 66.2273 34.3182C67.7983 34.3182 68.5142 35.6903 68.5142 37.2216C68.5142 38.7528 67.7983 40.1051 66.2273 40.1051ZM71.4785 41H72.6518V36.1676C72.6518 35.1335 73.4672 34.3778 74.5808 34.3778C74.894 34.3778 75.2172 34.4375 75.2967 34.4574V33.2642C75.1625 33.2543 74.8542 33.2443 74.6802 33.2443C73.7655 33.2443 72.97 33.7614 72.6916 34.517H72.612V33.3636H71.4785V41ZM79.3386 41.1591C80.8102 41.1591 81.3074 40.2443 81.5659 39.8267H81.7051V41H82.8386V30.8182H81.6653V34.5767H81.5659C81.3074 34.179 80.85 33.2642 79.3585 33.2642C77.4295 33.2642 76.0971 34.7955 76.0971 37.2017C76.0971 39.6278 77.4295 41.1591 79.3386 41.1591ZM79.4977 40.1051C78.0261 40.1051 77.2704 38.8125 77.2704 37.1818C77.2704 35.571 78.0062 34.3182 79.4977 34.3182C80.9295 34.3182 81.6852 35.4716 81.6852 37.1818C81.6852 38.9119 80.9096 40.1051 79.4977 40.1051ZM88.3521 41.1591C89.9032 41.1591 91.0368 40.3835 91.3947 39.2301L90.2612 38.9119C89.9629 39.7074 89.2719 40.1051 88.3521 40.1051C86.975 40.1051 86.0254 39.2152 85.9707 37.5795H91.514V37.0824C91.514 34.2386 89.8237 33.2642 88.2328 33.2642C86.1646 33.2642 84.7924 34.8949 84.7924 37.2415C84.7924 39.5881 86.1447 41.1591 88.3521 41.1591ZM85.9707 36.5653C86.0503 35.3771 86.8905 34.3182 88.2328 34.3182C89.5055 34.3182 90.3209 35.2727 90.3209 36.5653H85.9707ZM93.2988 41H94.4721V36.1676C94.4721 35.1335 95.2875 34.3778 96.4011 34.3778C96.7143 34.3778 97.0375 34.4375 97.117 34.4574V33.2642C96.9828 33.2543 96.6745 33.2443 96.5005 33.2443C95.5858 33.2443 94.7903 33.7614 94.5119 34.517H94.4324V33.3636H93.2988V41ZM103.917 35.0739C103.549 33.9901 102.724 33.2642 101.212 33.2642C99.6016 33.2642 98.4084 34.179 98.4084 35.4716C98.4084 36.5256 99.0348 37.2315 100.437 37.5597L101.71 37.858C102.48 38.0369 102.843 38.4048 102.843 38.9318C102.843 39.5881 102.147 40.125 101.053 40.125C100.094 40.125 99.4922 39.7124 99.2834 38.892L98.1698 39.1705C98.4432 40.468 99.5121 41.1591 101.073 41.1591C102.848 41.1591 104.056 40.1896 104.056 38.8722C104.056 37.8082 103.39 37.1371 102.028 36.804L100.894 36.5256C99.9894 36.3018 99.5817 35.9986 99.5817 35.4119C99.5817 34.7557 100.278 34.2784 101.212 34.2784C102.237 34.2784 102.659 34.8452 102.863 35.3722L103.917 35.0739ZM113.081 33.3636H111.45V31.5341H110.277V33.3636H109.123V34.358H110.277V39.1307C110.277 40.4631 111.351 41.0994 112.345 41.0994C112.783 41.0994 113.061 41.0199 113.22 40.9602L112.981 39.9062C112.882 39.9261 112.723 39.9659 112.464 39.9659C111.947 39.9659 111.45 39.8068 111.45 38.8125V34.358H113.081V33.3636ZM116.183 36.4062C116.183 35.0739 117.033 34.3182 118.192 34.3182C119.295 34.3182 119.961 35.0142 119.961 36.2273V41H121.135V36.1477C121.135 34.1839 120.091 33.2642 118.53 33.2642C117.327 33.2642 116.64 33.7663 116.283 34.5568H116.183V30.8182H115.01V41H116.183V36.4062ZM123.281 41H124.455V33.3636H123.281V41ZM123.878 32.0909C124.335 32.0909 124.713 31.733 124.713 31.2955C124.713 30.858 124.335 30.5 123.878 30.5C123.42 30.5 123.043 30.858 123.043 31.2955C123.043 31.733 123.42 32.0909 123.878 32.0909ZM132.013 35.0739C131.645 33.9901 130.819 33.2642 129.308 33.2642C127.697 33.2642 126.504 34.179 126.504 35.4716C126.504 36.5256 127.131 37.2315 128.533 37.5597L129.805 37.858C130.576 38.0369 130.939 38.4048 130.939 38.9318C130.939 39.5881 130.243 40.125 129.149 40.125C128.189 40.125 127.588 39.7124 127.379 38.892L126.265 39.1705C126.539 40.468 127.608 41.1591 129.169 41.1591C130.944 41.1591 132.152 40.1896 132.152 38.8722C132.152 37.8082 131.486 37.1371 130.123 36.804L128.99 36.5256C128.085 36.3018 127.677 35.9986 127.677 35.4119C127.677 34.7557 128.373 34.2784 129.308 34.2784C130.332 34.2784 130.755 34.8452 130.959 35.3722L132.013 35.0739ZM137.855 41H139.029V36.2273C139.029 35.1087 139.844 34.3182 140.759 34.3182C141.649 34.3182 142.27 34.8999 142.27 35.7699V41H143.463V36.0284C143.463 35.044 144.08 34.3182 145.154 34.3182C145.989 34.3182 146.705 34.7607 146.705 35.8892V41H147.878V35.8892C147.878 34.0945 146.914 33.2642 145.552 33.2642C144.458 33.2642 143.657 33.7663 143.265 34.5568H143.185C142.807 33.7415 142.141 33.2642 141.137 33.2642C140.142 33.2642 139.407 33.7415 139.088 34.5568H138.989V33.3636H137.855V41ZM153.126 41.1591C155.194 41.1591 156.586 39.5881 156.586 37.2216C156.586 34.8352 155.194 33.2642 153.126 33.2642C151.058 33.2642 149.665 34.8352 149.665 37.2216C149.665 39.5881 151.058 41.1591 153.126 41.1591ZM153.126 40.1051C151.555 40.1051 150.839 38.7528 150.839 37.2216C150.839 35.6903 151.555 34.3182 153.126 34.3182C154.697 34.3182 155.413 35.6903 155.413 37.2216C155.413 38.7528 154.697 40.1051 153.126 40.1051ZM159.55 36.4062C159.55 35.0739 160.376 34.3182 161.499 34.3182C162.588 34.3182 163.249 35.0291 163.249 36.2273V41H164.422V36.1477C164.422 34.1989 163.383 33.2642 161.837 33.2642C160.684 33.2642 159.968 33.7812 159.61 34.5568H159.51V33.3636H158.377V41H159.55V36.4062ZM169.887 33.3636H168.257V31.5341H167.083V33.3636H165.93V34.358H167.083V39.1307C167.083 40.4631 168.157 41.0994 169.152 41.0994C169.589 41.0994 169.868 41.0199 170.027 40.9602L169.788 39.9062C169.689 39.9261 169.529 39.9659 169.271 39.9659C168.754 39.9659 168.257 39.8068 168.257 38.8125V34.358H169.887V33.3636ZM172.99 36.4062C172.99 35.0739 173.84 34.3182 174.998 34.3182C176.102 34.3182 176.768 35.0142 176.768 36.2273V41H177.941V36.1477C177.941 34.1839 176.897 33.2642 175.336 33.2642C174.133 33.2642 173.447 33.7663 173.089 34.5568H172.99V30.8182H171.816V41H172.99V36.4062Z" fill="#6E8BB7"/>
<path d="M32.4831 87.1818H34.4945L34.5116 85.2131C38.2019 84.9318 40.3411 82.9716 40.3496 80.0142C40.3411 77.108 38.1508 75.5653 35.1167 74.8835L34.6138 74.7642L34.6479 70.5028C35.7814 70.767 36.4718 71.4915 36.5741 72.5653H40.111C40.0684 69.7443 37.9633 67.7244 34.682 67.3665L34.6991 65.3636H32.6877L32.6706 67.3494C29.3383 67.6733 26.986 69.6847 27.003 72.5909C26.9945 75.1648 28.8098 76.6392 31.7587 77.3466L32.5769 77.5511L32.5343 82.0597C31.1451 81.7955 30.2076 80.9432 30.1138 79.5199H26.5428C26.628 82.9631 28.8866 84.8892 32.5002 85.2045L32.4831 87.1818ZM34.5456 82.0597L34.5797 78.0795C35.9008 78.4972 36.6167 79.0341 36.6252 80.0057C36.6167 81.0369 35.8326 81.804 34.5456 82.0597ZM32.6025 74.2443C31.5371 73.8778 30.7701 73.3239 30.7871 72.3438C30.7871 71.4318 31.4348 70.7244 32.6366 70.4773L32.6025 74.2443ZM50.3233 67.5455H46.8546L42.5336 70.2812V73.554L46.5307 71.0483H46.633V85H50.3233V67.5455ZM54.4718 85H66.915V81.983H59.5854V81.8636L62.1337 79.3665C65.7218 76.0938 66.6848 74.4574 66.6848 72.4716C66.6848 69.446 64.2133 67.3068 60.4718 67.3068C56.807 67.3068 54.2928 69.4972 54.3013 72.9233H57.8042C57.7956 71.2528 58.8525 70.2301 60.4462 70.2301C61.9803 70.2301 63.1223 71.1847 63.1223 72.7188C63.1223 74.108 62.2701 75.0625 60.6848 76.5881L54.4718 82.3409V85ZM73.5691 82.6136H70.5691L70.5265 83.5682C70.4242 85.8864 69.7594 88.2642 69.5123 89.2614H71.8645C72.2736 88.2301 73.2452 85.8097 73.4753 83.5511L73.5691 82.6136ZM76.8887 85H80.6983L87.9427 70.6051V67.5455H75.6955V70.5625H84.1245V70.6818L76.8887 85ZM96.6124 85.2386C100.499 85.2386 103.141 82.7074 103.132 79.179C103.141 75.8381 100.806 73.4347 97.6607 73.4347C96.1266 73.4347 94.8056 74.0739 94.192 74.9347H94.0897L94.5414 70.5625H102.169V67.5455H91.4988L90.6721 76.75L93.9533 77.3381C94.4902 76.6136 95.53 76.1619 96.5613 76.1619C98.317 76.1705 99.5783 77.4403 99.5783 79.2727C99.5783 81.0881 98.3425 82.3409 96.6124 82.3409C95.1465 82.3409 93.9618 81.4205 93.8766 80.0653H90.2971C90.3652 83.0824 92.9988 85.2386 96.6124 85.2386ZM112.55 85.3835C116.939 85.3835 119.59 82.0426 119.598 76.2898C119.607 70.5795 116.922 67.3068 112.55 67.3068C108.169 67.3068 105.51 70.571 105.502 76.2898C105.485 82.0256 108.152 85.375 112.55 85.3835ZM112.55 82.3239C110.547 82.3239 109.252 80.3125 109.26 76.2898C109.269 72.3267 110.556 70.3324 112.55 70.3324C114.536 70.3324 115.831 72.3267 115.831 76.2898C115.84 80.3125 114.544 82.3239 112.55 82.3239Z" fill="#303940"/>
<rect x="163.588" y="56" width="89" height="40" rx="12" fill="#1AC19D" fill-opacity="0.15"/>
<path d="M179.516 80.3984H181.077V77.7386H183.737V76.1776H181.077V73.5178H179.516V76.1776H176.856V77.7386H179.516V80.3984ZM190.054 70.8182H188.299L185.769 72.4439V74.1342L188.15 72.6129H188.21V81H190.054V70.8182ZM192.64 81H199.62V79.4588H195.185V79.3892L196.94 77.6044C198.919 75.7053 199.466 74.7805 199.466 73.6321C199.466 71.9268 198.078 70.679 196.03 70.679C194.012 70.679 192.58 71.9318 192.58 73.8658H194.335C194.335 72.8267 194.991 72.1754 196.005 72.1754C196.975 72.1754 197.696 72.767 197.696 73.7266C197.696 74.5767 197.179 75.1832 196.174 76.2024L192.64 79.6676V81ZM206.779 79.0909C206.784 80.2741 207.534 81.2834 208.931 81.2834C210.324 81.2834 211.089 80.2741 211.084 79.0909V78.554C211.089 77.3608 210.343 76.3615 208.931 76.3615C207.554 76.3615 206.784 77.3707 206.779 78.554V79.0909ZM201.603 73.2642C201.608 74.4474 202.359 75.4467 203.761 75.4467C205.148 75.4467 205.914 74.4574 205.909 73.2642V72.7273C205.914 71.5341 205.168 70.5348 203.761 70.5348C202.389 70.5348 201.608 71.5341 201.603 72.7273V73.2642ZM202.051 81H203.299L210.299 70.8182H209.051L202.051 81ZM208.076 78.554C208.081 78.027 208.305 77.495 208.931 77.495C209.588 77.495 209.782 78.027 209.777 78.554V79.0909C209.782 79.6179 209.568 80.1399 208.931 80.1399C208.295 80.1399 208.081 79.6129 208.076 79.0909V78.554ZM202.911 72.7273C202.916 72.2053 203.13 71.6683 203.761 71.6683C204.417 71.6683 204.606 72.2003 204.601 72.7273V73.2642C204.606 73.7912 204.397 74.3132 203.761 74.3132C203.125 74.3132 202.916 73.7912 202.911 73.2642V72.7273Z" fill="#1AC19D"/>
<rect x="220.588" y="64" width="24" height="24" rx="12" fill="#1AC19D" fill-opacity="0.2"/>
<path d="M235.175 77.8067L232.588 75.22L230.002 77.8067C229.742 78.0667 229.322 78.0667 229.062 77.8067C228.802 77.5467 228.802 77.1267 229.062 76.8667L232.122 73.8067C232.382 73.5467 232.802 73.5467 233.062 73.8067L236.122 76.8667C236.382 77.1267 236.382 77.5467 236.122 77.8067C235.862 78.06 235.435 78.0667 235.175 77.8067Z" fill="#1AC19D"/>
<path d="M24 193.632C24 193.632 33.0809 173.034 42.6664 173.034C52.2518 173.034 51.9995 183.587 58.4319 183.587C64.8642 183.587 66.3777 152.816 77.2244 152.816C88.071 152.816 85.2963 163.243 91.9809 163.243C98.6655 163.243 100.179 132.726 112.413 132.726C124.647 132.726 122.755 152.816 128.557 152.816C134.359 152.816 132.214 142.39 138.647 142.39C147.349 142.39 151.511 172.398 161.349 172.398C171.187 172.398 166.52 152.816 176.736 152.816C186.952 152.816 183.673 183.587 197.547 183.587C210.159 183.587 209.402 132.726 222.141 132.726C233.114 132.726 228.699 152.816 238.663 152.816C248.627 152.816 243.078 112 254.176 112" stroke="#F2271C" stroke-width="2"/>
<path d="M42.6664 172.667C33.0809 172.667 24 193.142 24 193.142V203H254.176V112C243.078 112 248.627 152.571 238.663 152.571C228.699 152.571 233.114 132.601 222.141 132.601C209.402 132.601 210.159 183.157 197.547 183.157C183.673 183.157 186.952 152.571 176.736 152.571C166.52 152.571 171.187 172.035 161.349 172.035C151.511 172.035 147.349 142.207 138.647 142.207C132.214 142.207 134.359 152.571 128.557 152.571C122.755 152.571 124.647 132.601 112.413 132.601C100.179 132.601 98.6655 162.935 91.9809 162.935C85.2963 162.935 88.071 152.571 77.2244 152.571C66.3777 152.571 64.8642 183.157 58.4319 183.157C51.9995 183.157 52.2518 172.667 42.6664 172.667Z" fill="url(#paint0_linear_88_5041)"/>
<defs>
<linearGradient id="paint0_linear_88_5041" x1="139.088" y1="112" x2="139.088" y2="203" gradientUnits="userSpaceOnUse">
<stop stop-color="#F2271C" stop-opacity="0.8"/>
<stop offset="1" stop-color="#F2271C" stop-opacity="0.1"/>
</linearGradient>
</defs>
</svg>
