<svg width="279" height="227" viewBox="0 0 279 227" fill="none" xmlns="http://www.w3.org/2000/svg">
<rect width="278.176" height="227" rx="6" fill="white"/>
<path d="M26.2644 31.9119H29.4661V41H30.6991V31.9119H33.9008V30.8182H26.2644V31.9119ZM37.6394 41.1591C39.7076 41.1591 41.0996 39.5881 41.0996 37.2216C41.0996 34.8352 39.7076 33.2642 37.6394 33.2642C35.5712 33.2642 34.1792 34.8352 34.1792 37.2216C34.1792 39.5881 35.5712 41.1591 37.6394 41.1591ZM37.6394 40.1051C36.0684 40.1051 35.3525 38.7528 35.3525 37.2216C35.3525 35.6903 36.0684 34.3182 37.6394 34.3182C39.2104 34.3182 39.9263 35.6903 39.9263 37.2216C39.9263 38.7528 39.2104 40.1051 37.6394 40.1051ZM46.2117 33.3636H44.581V31.5341H43.4077V33.3636H42.2543V34.358H43.4077V39.1307C43.4077 40.4631 44.4815 41.0994 45.4759 41.0994C45.9134 41.0994 46.1918 41.0199 46.3509 40.9602L46.1122 39.9062C46.0128 39.9261 45.8537 39.9659 45.5952 39.9659C45.0781 39.9659 44.581 39.8068 44.581 38.8125V34.358H46.2117V33.3636ZM50.2237 41.179C51.5561 41.179 52.2521 40.4631 52.4908 39.9659H52.5504V41H53.7237V35.9688C53.7237 33.5426 51.8743 33.2642 50.8999 33.2642C49.7465 33.2642 48.434 33.6619 47.8374 35.054L48.951 35.4517C49.2095 34.8949 49.821 34.2983 50.9396 34.2983C52.0185 34.2983 52.5504 34.87 52.5504 35.8494V35.8892C52.5504 36.456 51.9737 36.4062 50.5817 36.5852C49.1648 36.7692 47.6186 37.0824 47.6186 38.8324C47.6186 40.3239 48.772 41.179 50.2237 41.179ZM50.4027 40.125C49.4681 40.125 48.7919 39.7074 48.7919 38.892C48.7919 37.9972 49.6073 37.7188 50.522 37.5994C51.0192 37.5398 52.3516 37.4006 52.5504 37.1619V38.2358C52.5504 39.1903 51.7948 40.125 50.4027 40.125ZM57.0385 30.8182H55.8652V41H57.0385V30.8182ZM66.2273 41.1591C68.2955 41.1591 69.6875 39.5881 69.6875 37.2216C69.6875 34.8352 68.2955 33.2642 66.2273 33.2642C64.1591 33.2642 62.7671 34.8352 62.7671 37.2216C62.7671 39.5881 64.1591 41.1591 66.2273 41.1591ZM66.2273 40.1051C64.6563 40.1051 63.9404 38.7528 63.9404 37.2216C63.9404 35.6903 64.6563 34.3182 66.2273 34.3182C67.7983 34.3182 68.5142 35.6903 68.5142 37.2216C68.5142 38.7528 67.7983 40.1051 66.2273 40.1051ZM71.4785 41H72.6518V36.1676C72.6518 35.1335 73.4672 34.3778 74.5808 34.3778C74.894 34.3778 75.2172 34.4375 75.2967 34.4574V33.2642C75.1625 33.2543 74.8542 33.2443 74.6802 33.2443C73.7655 33.2443 72.97 33.7614 72.6916 34.517H72.612V33.3636H71.4785V41ZM79.3386 41.1591C80.8102 41.1591 81.3074 40.2443 81.5659 39.8267H81.7051V41H82.8386V30.8182H81.6653V34.5767H81.5659C81.3074 34.179 80.85 33.2642 79.3585 33.2642C77.4295 33.2642 76.0971 34.7955 76.0971 37.2017C76.0971 39.6278 77.4295 41.1591 79.3386 41.1591ZM79.4977 40.1051C78.0261 40.1051 77.2704 38.8125 77.2704 37.1818C77.2704 35.571 78.0062 34.3182 79.4977 34.3182C80.9295 34.3182 81.6852 35.4716 81.6852 37.1818C81.6852 38.9119 80.9096 40.1051 79.4977 40.1051ZM88.3521 41.1591C89.9032 41.1591 91.0368 40.3835 91.3947 39.2301L90.2612 38.9119C89.9629 39.7074 89.2719 40.1051 88.3521 40.1051C86.975 40.1051 86.0254 39.2152 85.9707 37.5795H91.514V37.0824C91.514 34.2386 89.8237 33.2642 88.2328 33.2642C86.1646 33.2642 84.7924 34.8949 84.7924 37.2415C84.7924 39.5881 86.1447 41.1591 88.3521 41.1591ZM85.9707 36.5653C86.0503 35.3771 86.8905 34.3182 88.2328 34.3182C89.5055 34.3182 90.3209 35.2727 90.3209 36.5653H85.9707ZM93.2988 41H94.4721V36.1676C94.4721 35.1335 95.2875 34.3778 96.4011 34.3778C96.7143 34.3778 97.0375 34.4375 97.117 34.4574V33.2642C96.9828 33.2543 96.6745 33.2443 96.5005 33.2443C95.5858 33.2443 94.7903 33.7614 94.5119 34.517H94.4324V33.3636H93.2988V41ZM103.917 35.0739C103.549 33.9901 102.724 33.2642 101.212 33.2642C99.6016 33.2642 98.4084 34.179 98.4084 35.4716C98.4084 36.5256 99.0348 37.2315 100.437 37.5597L101.71 37.858C102.48 38.0369 102.843 38.4048 102.843 38.9318C102.843 39.5881 102.147 40.125 101.053 40.125C100.094 40.125 99.4922 39.7124 99.2834 38.892L98.1698 39.1705C98.4432 40.468 99.5121 41.1591 101.073 41.1591C102.848 41.1591 104.056 40.1896 104.056 38.8722C104.056 37.8082 103.39 37.1371 102.028 36.804L100.894 36.5256C99.9894 36.3018 99.5817 35.9986 99.5817 35.4119C99.5817 34.7557 100.278 34.2784 101.212 34.2784C102.237 34.2784 102.659 34.8452 102.863 35.3722L103.917 35.0739ZM113.081 33.3636H111.45V31.5341H110.277V33.3636H109.123V34.358H110.277V39.1307C110.277 40.4631 111.351 41.0994 112.345 41.0994C112.783 41.0994 113.061 41.0199 113.22 40.9602L112.981 39.9062C112.882 39.9261 112.723 39.9659 112.464 39.9659C111.947 39.9659 111.45 39.8068 111.45 38.8125V34.358H113.081V33.3636ZM116.183 36.4062C116.183 35.0739 117.033 34.3182 118.192 34.3182C119.295 34.3182 119.961 35.0142 119.961 36.2273V41H121.135V36.1477C121.135 34.1839 120.091 33.2642 118.53 33.2642C117.327 33.2642 116.64 33.7663 116.283 34.5568H116.183V30.8182H115.01V41H116.183V36.4062ZM123.281 41H124.455V33.3636H123.281V41ZM123.878 32.0909C124.335 32.0909 124.713 31.733 124.713 31.2955C124.713 30.858 124.335 30.5 123.878 30.5C123.42 30.5 123.043 30.858 123.043 31.2955C123.043 31.733 123.42 32.0909 123.878 32.0909ZM132.013 35.0739C131.645 33.9901 130.819 33.2642 129.308 33.2642C127.697 33.2642 126.504 34.179 126.504 35.4716C126.504 36.5256 127.131 37.2315 128.533 37.5597L129.805 37.858C130.576 38.0369 130.939 38.4048 130.939 38.9318C130.939 39.5881 130.243 40.125 129.149 40.125C128.189 40.125 127.588 39.7124 127.379 38.892L126.265 39.1705C126.539 40.468 127.608 41.1591 129.169 41.1591C130.944 41.1591 132.152 40.1896 132.152 38.8722C132.152 37.8082 131.486 37.1371 130.123 36.804L128.99 36.5256C128.085 36.3018 127.677 35.9986 127.677 35.4119C127.677 34.7557 128.373 34.2784 129.308 34.2784C130.332 34.2784 130.755 34.8452 130.959 35.3722L132.013 35.0739ZM137.855 41H139.029V36.2273C139.029 35.1087 139.844 34.3182 140.759 34.3182C141.649 34.3182 142.27 34.8999 142.27 35.7699V41H143.463V36.0284C143.463 35.044 144.08 34.3182 145.154 34.3182C145.989 34.3182 146.705 34.7607 146.705 35.8892V41H147.878V35.8892C147.878 34.0945 146.914 33.2642 145.552 33.2642C144.458 33.2642 143.657 33.7663 143.265 34.5568H143.185C142.807 33.7415 142.141 33.2642 141.137 33.2642C140.142 33.2642 139.407 33.7415 139.088 34.5568H138.989V33.3636H137.855V41ZM153.126 41.1591C155.194 41.1591 156.586 39.5881 156.586 37.2216C156.586 34.8352 155.194 33.2642 153.126 33.2642C151.058 33.2642 149.665 34.8352 149.665 37.2216C149.665 39.5881 151.058 41.1591 153.126 41.1591ZM153.126 40.1051C151.555 40.1051 150.839 38.7528 150.839 37.2216C150.839 35.6903 151.555 34.3182 153.126 34.3182C154.697 34.3182 155.413 35.6903 155.413 37.2216C155.413 38.7528 154.697 40.1051 153.126 40.1051ZM159.55 36.4062C159.55 35.0739 160.376 34.3182 161.499 34.3182C162.588 34.3182 163.249 35.0291 163.249 36.2273V41H164.422V36.1477C164.422 34.1989 163.383 33.2642 161.837 33.2642C160.684 33.2642 159.968 33.7812 159.61 34.5568H159.51V33.3636H158.377V41H159.55V36.4062ZM169.887 33.3636H168.257V31.5341H167.083V33.3636H165.93V34.358H167.083V39.1307C167.083 40.4631 168.157 41.0994 169.152 41.0994C169.589 41.0994 169.868 41.0199 170.027 40.9602L169.788 39.9062C169.689 39.9261 169.529 39.9659 169.271 39.9659C168.754 39.9659 168.257 39.8068 168.257 38.8125V34.358H169.887V33.3636ZM172.99 36.4062C172.99 35.0739 173.84 34.3182 174.998 34.3182C176.102 34.3182 176.768 35.0142 176.768 36.2273V41H177.941V36.1477C177.941 34.1839 176.897 33.2642 175.336 33.2642C174.133 33.2642 173.447 33.7663 173.089 34.5568H172.99V30.8182H171.816V41H172.99V36.4062Z" fill="#6E8BB7"/>
<path d="M34.5968 67.5455H31.128L26.807 70.2812V73.554L30.8042 71.0483H30.9064V85H34.5968V67.5455ZM41.8113 82.6136H38.8113L38.7687 83.5682C38.6664 85.8864 38.0016 88.2642 37.7545 89.2614H40.1067C40.5158 88.2301 41.4874 85.8097 41.7175 83.5511L41.8113 82.6136ZM50.905 85.2386C54.8425 85.2386 57.6721 83.1335 57.6806 80.304C57.6721 78.1222 55.9931 76.3409 53.8965 75.9915V75.8722C55.7204 75.4972 57.0243 73.9205 57.0329 72.0028C57.0243 69.3011 54.4334 67.3068 50.905 67.3068C47.3681 67.3068 44.7772 69.3011 44.7857 72.0028C44.7772 73.9119 46.0641 75.4972 47.9221 75.8722V75.9915C45.7914 76.3409 44.1295 78.1222 44.138 80.304C44.1295 83.1335 46.9675 85.2386 50.905 85.2386ZM50.905 82.5284C49.1493 82.5284 47.9732 81.4886 47.9732 80.0142C47.9732 78.5057 49.209 77.4148 50.905 77.4148C52.5925 77.4148 53.8368 78.5057 53.8368 80.0142C53.8368 81.4972 52.6522 82.5284 50.905 82.5284ZM50.905 74.7301C49.4306 74.7301 48.3823 73.767 48.3823 72.3864C48.3823 71.0227 49.4135 70.0852 50.905 70.0852C52.388 70.0852 53.4277 71.0312 53.4277 72.3864C53.4277 73.767 52.3709 74.7301 50.905 74.7301ZM66.6358 85.2386C70.5222 85.2386 73.1643 82.7074 73.1557 79.179C73.1643 75.8381 70.829 73.4347 67.6841 73.4347C66.15 73.4347 64.829 74.0739 64.2154 74.9347H64.1131L64.5648 70.5625H72.1927V67.5455H61.5222L60.6955 76.75L63.9768 77.3381C64.5137 76.6136 65.5535 76.1619 66.5847 76.1619C68.3404 76.1705 69.6018 77.4403 69.6018 79.2727C69.6018 81.0881 68.366 82.3409 66.6358 82.3409C65.1699 82.3409 63.9853 81.4205 63.9 80.0653H60.3205C60.3887 83.0824 63.0222 85.2386 66.6358 85.2386ZM82.5733 85.3835C86.9625 85.3835 89.6131 82.0426 89.6216 76.2898C89.6302 70.5795 86.9455 67.3068 82.5733 67.3068C78.1927 67.3068 75.5336 70.571 75.525 76.2898C75.508 82.0256 78.1756 85.375 82.5733 85.3835ZM82.5733 82.3239C80.5705 82.3239 79.275 80.3125 79.2836 76.2898C79.2921 72.3267 80.579 70.3324 82.5733 70.3324C84.5591 70.3324 85.8546 72.3267 85.8546 76.2898C85.8631 80.3125 84.5677 82.3239 82.5733 82.3239Z" fill="#303940"/>
<rect x="172.588" y="56" width="80" height="40" rx="12" fill="#F2271C" fill-opacity="0.1"/>
<path d="M190.142 76.0185H185.558V77.5H190.142V76.0185ZM195.554 81.1392C197.707 81.1392 199.208 79.6776 199.208 77.6541C199.208 75.6953 197.846 74.2834 195.997 74.2834C195.172 74.2834 194.441 74.6115 194.063 75.0589H194.003L194.297 72.3594H198.677V70.8182H192.77L192.238 76.0682L193.904 76.3416C194.247 75.9638 194.893 75.7102 195.505 75.7152C196.623 75.7202 197.429 76.5455 197.424 77.6989C197.429 78.8374 196.643 79.6477 195.554 79.6477C194.635 79.6477 193.894 79.0661 193.829 78.2308H192.039C192.089 79.9212 193.566 81.1392 195.554 81.1392ZM206.318 79.0909C206.323 80.2741 207.074 81.2834 208.471 81.2834C209.863 81.2834 210.628 80.2741 210.623 79.0909V78.554C210.628 77.3608 209.882 76.3615 208.471 76.3615C207.093 76.3615 206.323 77.3707 206.318 78.554V79.0909ZM201.142 73.2642C201.147 74.4474 201.898 75.4467 203.3 75.4467C204.687 75.4467 205.453 74.4574 205.448 73.2642V72.7273C205.453 71.5341 204.707 70.5348 203.3 70.5348C201.928 70.5348 201.147 71.5341 201.142 72.7273V73.2642ZM201.59 81H202.838L209.838 70.8182H208.59L201.59 81ZM207.615 78.554C207.62 78.027 207.844 77.495 208.471 77.495C209.127 77.495 209.321 78.027 209.316 78.554V79.0909C209.321 79.6179 209.107 80.1399 208.471 80.1399C207.834 80.1399 207.62 79.6129 207.615 79.0909V78.554ZM202.45 72.7273C202.455 72.2053 202.669 71.6683 203.3 71.6683C203.956 71.6683 204.145 72.2003 204.14 72.7273V73.2642C204.145 73.7912 203.936 74.3132 203.3 74.3132C202.664 74.3132 202.455 73.7912 202.45 73.2642V72.7273Z" fill="#F2271C"/>
<rect x="244.588" y="88" width="24" height="24" rx="12" transform="rotate(180 244.588 88)" fill="#F2271C" fill-opacity="0.15"/>
<path d="M230.002 74.1933L232.588 76.78L235.175 74.1933C235.435 73.9333 235.855 73.9333 236.115 74.1933C236.375 74.4533 236.375 74.8733 236.115 75.1333L233.055 78.1933C232.795 78.4533 232.375 78.4533 232.115 78.1933L229.055 75.1333C228.795 74.8733 228.795 74.4533 229.055 74.1933C229.315 73.94 229.742 73.9333 230.002 74.1933Z" fill="#F2271C"/>
<path d="M24 193.632C24 193.632 33.0809 173.034 42.6664 173.034C52.2518 173.034 51.9995 183.587 58.4319 183.587C64.8642 183.587 66.3777 152.816 77.2244 152.816C88.071 152.816 85.2963 163.243 91.9809 163.243C98.6655 163.243 100.179 132.726 112.413 132.726C124.647 132.726 122.755 152.816 128.557 152.816C134.359 152.816 132.214 142.39 138.647 142.39C147.349 142.39 151.511 172.398 161.349 172.398C171.187 172.398 166.52 152.816 176.736 152.816C186.952 152.816 183.673 183.587 197.547 183.587C210.159 183.587 209.402 132.726 222.141 132.726C233.114 132.726 228.699 152.816 238.663 152.816C248.627 152.816 243.078 112 254.176 112" stroke="#F8C51B" stroke-width="2"/>
<path d="M42.6664 172.667C33.0809 172.667 24 193.142 24 193.142V203H254.176V112C243.078 112 248.627 152.571 238.663 152.571C228.699 152.571 233.114 132.601 222.141 132.601C209.402 132.601 210.159 183.157 197.547 183.157C183.673 183.157 186.952 152.571 176.736 152.571C166.52 152.571 171.187 172.035 161.349 172.035C151.511 172.035 147.349 142.207 138.647 142.207C132.214 142.207 134.359 152.571 128.557 152.571C122.755 152.571 124.647 132.601 112.413 132.601C100.179 132.601 98.6655 162.935 91.9809 162.935C85.2963 162.935 88.071 152.571 77.2244 152.571C66.3777 152.571 64.8642 183.157 58.4319 183.157C51.9995 183.157 52.2518 172.667 42.6664 172.667Z" fill="url(#paint0_linear_88_5054)"/>
<defs>
<linearGradient id="paint0_linear_88_5054" x1="139.088" y1="112" x2="139.088" y2="203" gradientUnits="userSpaceOnUse">
<stop stop-color="#F8C51B" stop-opacity="0.8"/>
<stop offset="1" stop-color="#F8DD4E" stop-opacity="0.1"/>
</linearGradient>
</defs>
</svg>
