<svg width="271" height="120" viewBox="0 0 271 120" fill="none" xmlns="http://www.w3.org/2000/svg">
<rect width="271" height="120" rx="6" fill="white"/>
<path d="M33.0085 35.5455H29.5398L25.2188 38.2812V41.554L29.2159 39.0483H29.3182V53H33.0085V35.5455ZM44.7507 35.5455H41.282L36.9609 38.2812V41.554L40.9581 39.0483H41.0604V53H44.7507V35.5455ZM55.7429 53.3835C60.1321 53.3835 62.7827 50.0426 62.7912 44.2898C62.7997 38.5795 60.1151 35.3068 55.7429 35.3068C51.3622 35.3068 48.7031 38.571 48.6946 44.2898C48.6776 50.0256 51.3452 53.375 55.7429 53.3835ZM55.7429 50.3239C53.7401 50.3239 52.4446 48.3125 52.4531 44.2898C52.4616 40.3267 53.7486 38.3324 55.7429 38.3324C57.7287 38.3324 59.0241 40.3267 59.0241 44.2898C59.0327 48.3125 57.7372 50.3239 55.7429 50.3239ZM68.6761 50.6136H65.6761L65.6335 51.5682C65.5312 53.8864 64.8665 56.2642 64.6193 57.2614H66.9716C67.3807 56.2301 68.3523 53.8097 68.5824 51.5511L68.6761 50.6136ZM77.7699 53.2386C81.7074 53.2386 84.5369 51.1335 84.5455 48.304C84.5369 46.1222 82.858 44.3409 80.7614 43.9915V43.8722C82.5852 43.4972 83.8892 41.9205 83.8977 40.0028C83.8892 37.3011 81.2983 35.3068 77.7699 35.3068C74.233 35.3068 71.642 37.3011 71.6506 40.0028C71.642 41.9119 72.929 43.4972 74.7869 43.8722V43.9915C72.6562 44.3409 70.9943 46.1222 71.0028 48.304C70.9943 51.1335 73.8324 53.2386 77.7699 53.2386ZM77.7699 50.5284C76.0142 50.5284 74.8381 49.4886 74.8381 48.0142C74.8381 46.5057 76.0739 45.4148 77.7699 45.4148C79.4574 45.4148 80.7017 46.5057 80.7017 48.0142C80.7017 49.4972 79.517 50.5284 77.7699 50.5284ZM77.7699 42.7301C76.2955 42.7301 75.2472 41.767 75.2472 40.3864C75.2472 39.0227 76.2784 38.0852 77.7699 38.0852C79.2528 38.0852 80.2926 39.0312 80.2926 40.3864C80.2926 41.767 79.2358 42.7301 77.7699 42.7301ZM87.1257 53H99.5689V49.983H92.2393V49.8636L94.7876 47.3665C98.3757 44.0938 99.3388 42.4574 99.3388 40.4716C99.3388 37.446 96.8672 35.3068 93.1257 35.3068C89.4609 35.3068 86.9467 37.4972 86.9553 40.9233H90.4581C90.4496 39.2528 91.5064 38.2301 93.1001 38.2301C94.6342 38.2301 95.7763 39.1847 95.7763 40.7188C95.7763 42.108 94.924 43.0625 93.3388 44.5881L87.1257 50.3409V53ZM108.695 53.2386C112.615 53.2386 115.419 51.0824 115.411 48.0994C115.419 45.9261 114.038 44.375 111.473 44.0511V43.9148C113.425 43.5653 114.771 42.1847 114.763 40.2244C114.771 37.4716 112.359 35.3068 108.746 35.3068C105.166 35.3068 102.473 37.4034 102.422 40.4205H105.959C106.001 39.0909 107.22 38.2301 108.729 38.2301C110.22 38.2301 111.217 39.1335 111.209 40.446C111.217 41.8182 110.05 42.7472 108.371 42.7472H106.743V45.4574H108.371C110.348 45.4574 111.584 46.446 111.575 47.8523C111.584 49.2415 110.391 50.196 108.703 50.196C107.075 50.196 105.857 49.3438 105.788 48.0653H102.072C102.132 51.1165 104.859 53.2386 108.695 53.2386Z" fill="#4094F7"/>
<path d="M32.8494 78.8182H25.2528V89H26.4858V79.9119H31.6165V89H32.8494V78.8182ZM38.2797 89.1591C40.3478 89.1591 41.7399 87.5881 41.7399 85.2216C41.7399 82.8352 40.3478 81.2642 38.2797 81.2642C36.2115 81.2642 34.8194 82.8352 34.8194 85.2216C34.8194 87.5881 36.2115 89.1591 38.2797 89.1591ZM38.2797 88.1051C36.7086 88.1051 35.9927 86.7528 35.9927 85.2216C35.9927 83.6903 36.7086 82.3182 38.2797 82.3182C39.8507 82.3182 40.5666 83.6903 40.5666 85.2216C40.5666 86.7528 39.8507 88.1051 38.2797 88.1051ZM42.7156 91.1875H43.8888V89H49.5366V91.1875H50.7099V87.9062H49.5366V81.3636H44.6843L44.4258 84.3864C44.2418 86.5241 43.9684 87.2599 43.3519 87.9062H42.7156V91.1875ZM44.6843 87.9062C45.2212 87.2003 45.4151 85.9822 45.5792 84.3864L45.7781 82.4574H48.3633V87.9062H44.6843ZM52.2672 89H53.4405V82.4574H57.0996V89H58.2729V81.3636H52.2672V89ZM61.589 87.2699V81.3636H60.4157V89H61.7878L65.4469 83.0938V89H66.6202V81.3636H65.2679L61.589 87.2699ZM71.8714 89.1591C73.5618 89.1591 74.6754 88.125 74.8743 86.7727H73.701C73.4822 87.608 72.7862 88.1051 71.8714 88.1051C70.4794 88.1051 69.5845 86.9517 69.5845 85.1818C69.5845 83.4517 70.4993 82.3182 71.8714 82.3182C72.9055 82.3182 73.522 82.9545 73.701 83.6506H74.8743C74.6754 82.2188 73.4624 81.2642 71.8516 81.2642C69.7834 81.2642 68.4112 82.8949 68.4112 85.2216C68.4112 87.5085 69.7237 89.1591 71.8714 89.1591ZM82.4759 81.3636H81.3026V85.2365C80.7358 85.4006 80.1541 85.5 79.4531 85.5C78.4986 85.5 77.7628 84.9631 77.7628 83.7898V81.3438H76.5895V83.7898C76.5895 85.6591 77.723 86.5938 79.4531 86.5938C80.174 86.5938 80.7507 86.4993 81.3026 86.3352V89H82.4759V81.3636ZM85.8018 87.2699V81.3636H84.6286V89H86.0007L89.6598 83.0938V89H90.8331V81.3636H89.4808L85.8018 87.2699ZM92.9821 89H94.1554V85.7784H95.2093L97.715 89H99.2264L96.1042 85.0426L99.1866 81.3636H97.6752L94.9309 84.6847H94.1554V81.3636H92.9821V89ZM101.675 87.2699V81.3636H100.502V89H101.874L105.533 83.0938V89H106.706V81.3636H105.354L101.675 87.2699Z" fill="#6E8BB7"/>
<rect x="175" y="24" width="72" height="72" rx="6" fill="#4094F7" fill-opacity="0.15"/>
<g clip-path="url(#clip0_88_4930)">
<path d="M211 73.3333C212.467 73.3333 213.667 72.1333 213.667 70.6666H208.333C208.333 72.1333 209.52 73.3333 211 73.3333ZM219 65.3333V58.6666C219 54.5733 216.813 51.1466 213 50.24V49.3333C213 48.2266 212.107 47.3333 211 47.3333C209.893 47.3333 209 48.2266 209 49.3333V50.24C205.173 51.1466 203 54.56 203 58.6666V65.3333L201.28 67.0533C200.44 67.8933 201.027 69.3333 202.213 69.3333H219.773C220.96 69.3333 221.56 67.8933 220.72 67.0533L219 65.3333Z" fill="#4094F7"/>
</g>
<defs>
<clipPath id="clip0_88_4930">
<rect width="32" height="32" fill="white" transform="translate(195 44)"/>
</clipPath>
</defs>
</svg>
