<svg width="413" height="208" viewBox="0 0 413 208" fill="none" xmlns="http://www.w3.org/2000/svg">
<rect width="413" height="208" rx="6" fill="white"/>
<path d="M183.75 104C183.75 148.183 147.933 184 103.75 184C59.5672 184 23.75 148.183 23.75 104C23.75 59.8172 59.5672 24 103.75 24C147.933 24 183.75 59.8172 183.75 104ZM43.75 104C43.75 137.137 70.6129 164 103.75 164C136.887 164 163.75 137.137 163.75 104C163.75 70.8629 136.887 44 103.75 44C70.6129 44 43.75 70.8629 43.75 104Z" fill="#1AC19D" fill-opacity="0.1"/>
<path d="M173.5 104C179.023 104 183.564 108.494 182.876 113.974C181.463 125.218 177.672 136.073 171.711 145.8C164.002 158.38 152.965 168.582 139.819 175.281C126.674 181.979 111.932 184.911 97.2233 183.753C82.515 182.596 68.4133 177.393 56.4772 168.721C44.5411 160.049 35.2357 148.245 29.5896 134.615C23.9436 120.984 22.1769 106.057 24.4849 91.4853C26.7929 76.9131 33.0857 63.2631 42.6675 52.0442C50.0764 43.3694 59.2287 36.4095 69.4855 31.5913C74.4842 29.2431 80.1621 32.1735 81.8688 37.4261C83.5754 42.6786 80.6457 48.2489 75.7491 50.8033C68.9621 54.3439 62.8871 59.1654 57.8756 65.0331C50.6893 73.4473 45.9697 83.6849 44.2387 94.614C42.5077 105.543 43.8327 116.738 48.0672 126.961C52.3018 137.184 59.2808 146.037 68.2329 152.541C77.1849 159.045 87.7612 162.947 98.7925 163.815C109.824 164.683 120.88 162.484 130.739 157.46C140.599 152.437 148.877 144.785 154.658 135.35C158.69 128.77 161.399 121.503 162.669 113.954C163.585 108.508 167.977 104 173.5 104Z" fill="#1AC19D"/>
<path d="M80.6051 113H84.4148L91.6591 98.6051V95.5455H79.4119V98.5625H87.8409V98.6818L80.6051 113ZM100.329 113.239C104.215 113.239 106.857 110.707 106.849 107.179C106.857 103.838 104.522 101.435 101.377 101.435C99.843 101.435 98.522 102.074 97.9084 102.935H97.8061L98.2578 98.5625H105.886V95.5455H95.2152L94.3885 104.75L97.6697 105.338C98.2067 104.614 99.2464 104.162 100.278 104.162C102.033 104.17 103.295 105.44 103.295 107.273C103.295 109.088 102.059 110.341 100.329 110.341C98.8629 110.341 97.6783 109.42 97.593 108.065H94.0135C94.0817 111.082 96.7152 113.239 100.329 113.239ZM118.977 109.727C118.985 111.824 120.323 113.605 122.82 113.605C125.292 113.605 126.673 111.824 126.664 109.727V108.807C126.673 106.693 125.326 104.929 122.82 104.929C120.357 104.929 118.985 106.71 118.977 108.807V109.727ZM110.019 99.7386C110.028 101.835 111.366 103.599 113.854 103.599C116.335 103.599 117.715 101.852 117.707 99.7386V98.8182C117.715 96.7045 116.369 94.9403 113.854 94.9403C111.417 94.9403 110.028 96.7045 110.019 98.8182V99.7386ZM110.854 113H113.079L125.079 95.5455H122.854L110.854 113ZM121.457 108.807C121.465 107.972 121.798 107.111 122.82 107.111C123.894 107.111 124.175 107.972 124.167 108.807V109.727C124.175 110.562 123.86 111.406 122.82 111.406C121.781 111.406 121.465 110.537 121.457 109.727V108.807ZM112.516 98.8182C112.525 98.0085 112.84 97.1222 113.854 97.1222C114.928 97.1222 115.218 97.983 115.21 98.8182V99.7386C115.218 100.574 114.894 101.418 113.854 101.418C112.849 101.418 112.525 100.574 112.516 99.7386V98.8182Z" fill="#1AC19D"/>
<path d="M224.676 75.9119H227.878V85H229.111V75.9119H232.312V74.8182H224.676V75.9119ZM236.051 85.1591C238.119 85.1591 239.511 83.5881 239.511 81.2216C239.511 78.8352 238.119 77.2642 236.051 77.2642C233.983 77.2642 232.591 78.8352 232.591 81.2216C232.591 83.5881 233.983 85.1591 236.051 85.1591ZM236.051 84.1051C234.48 84.1051 233.764 82.7528 233.764 81.2216C233.764 79.6903 234.48 78.3182 236.051 78.3182C237.622 78.3182 238.338 79.6903 238.338 81.2216C238.338 82.7528 237.622 84.1051 236.051 84.1051ZM241.302 87.8636H242.476V83.8267H242.575C242.834 84.2443 243.331 85.1591 244.802 85.1591C246.711 85.1591 248.044 83.6278 248.044 81.2017C248.044 78.7955 246.711 77.2642 244.782 77.2642C243.291 77.2642 242.834 78.179 242.575 78.5767H242.436V77.3636H241.302V87.8636ZM242.456 81.1818C242.456 79.4716 243.211 78.3182 244.643 78.3182C246.135 78.3182 246.871 79.571 246.871 81.1818C246.871 82.8125 246.115 84.1051 244.643 84.1051C243.231 84.1051 242.456 82.9119 242.456 81.1818ZM262.521 79.9091C262.521 76.6875 260.632 74.679 258.027 74.679C255.422 74.679 253.532 76.6875 253.532 79.9091C253.532 83.1307 255.422 85.1392 258.027 85.1392C260.632 85.1392 262.521 83.1307 262.521 79.9091ZM261.328 79.9091C261.328 82.554 259.876 83.9858 258.027 83.9858C256.177 83.9858 254.726 82.554 254.726 79.9091C254.726 77.2642 256.177 75.8324 258.027 75.8324C259.876 75.8324 261.328 77.2642 261.328 79.9091ZM264.435 85H265.608V80.1676C265.608 79.1335 266.424 78.3778 267.537 78.3778C267.851 78.3778 268.174 78.4375 268.253 78.4574V77.2642C268.119 77.2543 267.811 77.2443 267.637 77.2443C266.722 77.2443 265.927 77.7614 265.648 78.517H265.569V77.3636H264.435V85ZM272.295 85.1591C273.767 85.1591 274.264 84.2443 274.523 83.8267H274.662V85H275.795V74.8182H274.622V78.5767H274.523C274.264 78.179 273.807 77.2642 272.315 77.2642C270.386 77.2642 269.054 78.7955 269.054 81.2017C269.054 83.6278 270.386 85.1591 272.295 85.1591ZM272.454 84.1051C270.983 84.1051 270.227 82.8125 270.227 81.1818C270.227 79.571 270.963 78.3182 272.454 78.3182C273.886 78.3182 274.642 79.4716 274.642 81.1818C274.642 82.9119 273.866 84.1051 272.454 84.1051ZM281.309 85.1591C282.86 85.1591 283.993 84.3835 284.351 83.2301L283.218 82.9119C282.92 83.7074 282.229 84.1051 281.309 84.1051C279.932 84.1051 278.982 83.2152 278.927 81.5795H284.471V81.0824C284.471 78.2386 282.78 77.2642 281.189 77.2642C279.121 77.2642 277.749 78.8949 277.749 81.2415C277.749 83.5881 279.101 85.1591 281.309 85.1591ZM278.927 80.5653C279.007 79.3771 279.847 78.3182 281.189 78.3182C282.462 78.3182 283.278 79.2727 283.278 80.5653H278.927ZM286.256 85H287.429V80.1676C287.429 79.1335 288.244 78.3778 289.358 78.3778C289.671 78.3778 289.994 78.4375 290.074 78.4574V77.2642C289.939 77.2543 289.631 77.2443 289.457 77.2443C288.542 77.2443 287.747 77.7614 287.469 78.517H287.389V77.3636H286.256V85Z" fill="#6E8BB7"/>
<path d="M227.509 135H233.858L245.932 111.009V105.909H225.52V110.938H239.568V111.136L227.509 135ZM260.381 135.398C266.859 135.398 271.262 131.179 271.248 125.298C271.262 119.73 267.37 115.724 262.129 115.724C259.572 115.724 257.37 116.79 256.347 118.224H256.177L256.93 110.938H269.643V105.909H251.859L250.481 121.25L255.95 122.23C256.844 121.023 258.577 120.27 260.296 120.27C263.222 120.284 265.325 122.401 265.325 125.455C265.325 128.48 263.265 130.568 260.381 130.568C257.938 130.568 255.964 129.034 255.822 126.776H249.856C249.969 131.804 254.359 135.398 260.381 135.398ZM291.461 129.545C291.475 133.04 293.705 136.009 297.867 136.009C301.987 136.009 304.288 133.04 304.273 129.545V128.011C304.288 124.489 302.043 121.548 297.867 121.548C293.762 121.548 291.475 124.517 291.461 128.011V129.545ZM276.532 112.898C276.546 116.392 278.776 119.332 282.924 119.332C287.058 119.332 289.359 116.42 289.344 112.898V111.364C289.359 107.841 287.114 104.901 282.924 104.901C278.862 104.901 276.546 107.841 276.532 111.364V112.898ZM277.924 135H281.631L301.631 105.909H297.924L277.924 135ZM295.594 128.011C295.609 126.619 296.163 125.185 297.867 125.185C299.657 125.185 300.126 126.619 300.112 128.011V129.545C300.126 130.938 299.6 132.344 297.867 132.344C296.134 132.344 295.609 130.895 295.594 129.545V128.011ZM280.694 111.364C280.708 110.014 281.234 108.537 282.924 108.537C284.714 108.537 285.197 109.972 285.183 111.364V112.898C285.197 114.29 284.657 115.696 282.924 115.696C281.248 115.696 280.708 114.29 280.694 112.898V111.364Z" fill="#1AC19D"/>
</svg>
